<?xml version="1.0" encoding="utf-8"?>
<!-- Generator: Adobe Illustrator 24.3.0, SVG Export Plug-In . SVG Version: 6.00 Build 0)  -->
<svg version="1.1" id="Capa_1" xmlns="http://www.w3.org/2000/svg" xmlns:xlink="http://www.w3.org/1999/xlink" x="0px" y="0px"
	 viewBox="0 0 1080 229.7" style="enable-background:new 0 0 1080 229.7;" xml:space="preserve">
<style type="text/css">
	.st0{fill:#838383;}
	.st1{fill:#00A0B5;}
	.st2{enable-background:new    ;}
</style>
<g>
	<g>
		<path class="st0" d="M663.18,88.94v9.47c-1.81,0.26-3.44,0.43-5,0.43c-3.79,0-6.72-0.86-8.53-2.5c-1.89-1.64-2.84-4.22-2.84-7.66
			c0-3.44,0.95-5.94,2.93-7.66c1.89-1.72,4.74-2.58,8.44-2.58c1.55,0,3.1,0.17,4.48,0.52v3.62c-1.38-0.34-2.76-0.52-4.13-0.52
			c-1.64,0-3.01,0.26-4.05,0.69c-1.03,0.43-1.81,1.21-2.33,2.15c-0.52,0.95-0.78,2.24-0.78,3.88c0,2.24,0.52,3.88,1.64,4.91
			c1.03,1.03,2.67,1.55,4.91,1.55c0.26,0,0.69,0,1.21,0v-6.29L663.18,88.94L663.18,88.94L663.18,88.94z"/>
		<path class="st0" d="M670.41,97.72c-1.38-0.78-2.5-1.89-3.27-3.44c-0.78-1.55-1.12-3.44-1.12-5.68c0-2.24,0.34-4.13,1.12-5.68
			c0.78-1.55,1.89-2.67,3.27-3.44s3.1-1.12,5-1.12s3.62,0.34,5,1.12s2.5,1.89,3.27,3.44c0.78,1.55,1.12,3.44,1.12,5.68
			c0,2.24-0.43,4.13-1.12,5.68c-0.78,1.55-1.89,2.67-3.27,3.44s-3.1,1.12-5,1.12S671.79,98.5,670.41,97.72 M679.11,93.76
			c0.86-1.03,1.29-2.76,1.29-5c0-2.41-0.43-4.05-1.29-5.17c-0.86-1.12-2.07-1.64-3.62-1.64c-1.55,0-2.84,0.52-3.62,1.55
			c-0.86,1.03-1.29,2.76-1.29,5c0,2.41,0.43,4.13,1.29,5.17c0.86,1.03,2.07,1.64,3.62,1.64C677.05,95.31,678.25,94.79,679.11,93.76"
			/>
		<path class="st0" d="M702.19,89.88c0.69,0.78,0.95,1.81,0.95,3.1c0,1.29-0.34,2.33-0.95,3.19c-0.69,0.86-1.72,1.55-3.19,1.98
			c-1.46,0.43-3.36,0.69-5.68,0.69c-0.86,0-1.81,0-2.84-0.09c-1.03-0.09-1.98-0.17-2.84-0.26V79.12c0.95-0.17,1.98-0.34,3.1-0.52
			c1.12-0.17,2.24-0.17,3.27-0.17c2.93,0,5.08,0.43,6.46,1.38s2.07,2.33,2.07,4.13c0,1.03-0.26,1.98-0.86,2.76
			c-0.52,0.78-1.38,1.29-2.33,1.55C700.64,88.59,701.59,89.11,702.19,89.88 M692.03,81.87v4.91h2.84c1.29,0,2.24-0.17,2.84-0.6
			c0.6-0.43,0.86-1.03,0.86-1.98c0-0.6-0.17-1.12-0.34-1.46c-0.26-0.34-0.69-0.69-1.21-0.86c-0.52-0.17-1.29-0.26-2.24-0.26
			C693.84,81.61,692.89,81.7,692.03,81.87 M697.28,95.31c0.69-0.17,1.12-0.52,1.46-0.95c0.26-0.43,0.43-0.95,0.43-1.55
			c0-0.95-0.34-1.64-0.86-2.07c-0.6-0.43-1.55-0.69-2.93-0.69h-3.36v5.43c0.69,0.09,1.46,0.09,2.5,0.09
			C695.73,95.65,696.6,95.48,697.28,95.31"/>
		<rect x="705.72" y="78.69" class="st0" width="4.39" height="19.89"/>
		<polygon class="st0" points="718.04,95.05 727.86,95.05 727.86,98.58 713.73,98.58 713.73,78.69 727.77,78.69 727.77,82.13 
			718.04,82.13 718.04,86.61 726.39,86.61 726.39,90.14 718.04,90.14 		"/>
		<path class="st0" d="M742.41,98.58l-5.08-7.32h-0.26c-0.6,0-1.29,0-2.07-0.09v7.41h-4.31V79.12c0.95-0.17,1.98-0.34,3.01-0.52
			c1.03-0.09,2.15-0.17,3.19-0.17c2.93,0,5.08,0.52,6.46,1.55c1.46,1.03,2.15,2.67,2.15,4.82c0,1.38-0.34,2.58-1.03,3.62
			c-0.69,0.95-1.64,1.72-3.01,2.15l5.68,8.01C747.15,98.58,742.41,98.58,742.41,98.58z M734.92,87.9c0.78,0.09,1.46,0.09,2.15,0.09
			c1.46,0,2.5-0.26,3.19-0.78c0.69-0.52,1.03-1.29,1.03-2.41s-0.34-1.89-0.95-2.41c-0.69-0.52-1.72-0.78-3.1-0.78
			c-0.78,0-1.55,0.09-2.33,0.17L734.92,87.9L734.92,87.9z"/>
		<polygon class="st0" points="762.31,78.69 766.44,78.69 766.44,98.58 762.05,98.58 753.35,85.23 753.35,98.58 749.22,98.58 
			749.22,78.69 753.61,78.69 762.31,92.04 		"/>
		<path class="st0" d="M773.76,97.72c-1.38-0.78-2.5-1.89-3.27-3.44c-0.78-1.55-1.12-3.44-1.12-5.68c0-2.24,0.34-4.13,1.12-5.68
			c0.78-1.55,1.89-2.67,3.27-3.44c1.38-0.78,3.1-1.12,5-1.12s3.62,0.34,5,1.12s2.5,1.89,3.27,3.44c0.78,1.55,1.12,3.44,1.12,5.68
			c0,2.24-0.34,4.13-1.12,5.68c-0.78,1.55-1.89,2.67-3.27,3.44s-3.1,1.12-5,1.12S775.14,98.5,773.76,97.72 M782.46,93.76
			c0.86-1.03,1.29-2.76,1.29-5c0-2.41-0.43-4.05-1.29-5.17c-0.86-1.03-2.07-1.64-3.62-1.64c-1.55,0-2.84,0.52-3.62,1.55
			c-0.86,1.03-1.29,2.76-1.29,5c0,2.41,0.43,4.13,1.29,5.17c0.86,1.03,2.07,1.64,3.62,1.64C780.39,95.31,781.6,94.79,782.46,93.76"
			/>
		<path class="st0" d="M797.88,98.5V79.12c0.95-0.17,1.98-0.34,3.1-0.52c1.12-0.09,2.24-0.17,3.27-0.17c3.7,0,6.37,0.86,8.27,2.5
			c1.81,1.64,2.76,4.22,2.76,7.66c0,2.41-0.43,4.31-1.29,5.77c-0.86,1.46-2.15,2.58-3.96,3.27c-1.72,0.69-3.96,1.03-6.63,1.03
			C801.41,98.75,799.6,98.67,797.88,98.5 M807.95,94.53c0.86-0.43,1.55-1.12,2.07-2.07c0.43-0.95,0.69-2.24,0.69-3.88
			c0-1.55-0.26-2.84-0.69-3.79c-0.43-0.95-1.12-1.72-2.07-2.15c-0.86-0.43-2.07-0.69-3.44-0.69c-0.69,0-1.46,0.09-2.24,0.17v12.92
			c0.6,0.09,1.29,0.09,2.24,0.09C805.89,95.22,807.09,94.96,807.95,94.53"/>
		<polygon class="st0" points="822.51,95.05 832.33,95.05 832.33,98.58 818.12,98.58 818.12,78.69 832.15,78.69 832.15,82.13 
			822.51,82.13 822.51,86.61 830.78,86.61 830.78,90.14 822.51,90.14 		"/>
		<polygon class="st0" points="841.8,98.58 841.8,78.69 846.19,78.69 846.19,94.96 855.41,94.96 855.41,98.58 		"/>
		<path class="st0" d="M870.74,98.58l-1.64-5.34h-7.41l-1.64,5.34h-4.31l6.46-19.89h6.37l6.46,19.89H870.74z M862.73,89.8h5.25
			l-2.67-8.53L862.73,89.8z"/>
		<path class="st0" d="M883.83,79.03c2.07-0.43,4.05-0.6,6.03-0.6c3.01,0,5.25,0.6,6.72,1.72c1.46,1.21,2.24,3.01,2.24,5.43
			s-0.69,4.13-2.15,5.34c-1.46,1.21-3.62,1.81-6.46,1.81c-0.43,0-1.03,0-1.89-0.09v5.86h-4.39V79.03H883.83z M893.47,88.59
			c0.69-0.6,1.03-1.64,1.03-2.93c0-1.38-0.34-2.41-1.03-3.01s-1.81-0.95-3.19-0.95c-0.78,0-1.38,0.09-2.07,0.17v7.49
			c0.69,0.09,1.29,0.09,1.98,0.09C891.66,89.54,892.78,89.19,893.47,88.59"/>
		<path class="st0" d="M913.28,98.58l-5.08-7.32h-0.26c-0.6,0-1.29,0-2.07-0.09v7.41h-4.31V79.12c0.95-0.17,1.98-0.34,3.01-0.52
			c1.03-0.09,2.15-0.17,3.19-0.17c2.93,0,5.08,0.52,6.46,1.55c1.46,1.03,2.15,2.67,2.15,4.82c0,1.38-0.34,2.58-1.03,3.62
			c-0.69,0.95-1.64,1.72-3.01,2.15l5.68,8.01C918.02,98.58,913.28,98.58,913.28,98.58z M905.87,87.9c0.78,0.09,1.46,0.09,2.15,0.09
			c1.46,0,2.5-0.26,3.19-0.78s1.03-1.29,1.03-2.41s-0.34-1.89-0.95-2.41c-0.69-0.52-1.72-0.78-3.1-0.78c-0.78,0-1.55,0.09-2.33,0.17
			L905.87,87.9L905.87,87.9z"/>
		<path class="st0" d="M922.93,97.72c-1.38-0.78-2.5-1.89-3.27-3.44c-0.78-1.55-1.12-3.44-1.12-5.68c0-2.24,0.43-4.13,1.12-5.68
			c0.78-1.55,1.89-2.67,3.27-3.44s3.1-1.12,5-1.12s3.62,0.34,5,1.12s2.5,1.89,3.27,3.44c0.78,1.55,1.12,3.44,1.12,5.68
			c0,2.24-0.34,4.13-1.12,5.68c-0.78,1.55-1.89,2.67-3.27,3.44s-3.1,1.12-5,1.12C926.03,98.84,924.3,98.5,922.93,97.72
			 M931.63,93.76c0.86-1.03,1.29-2.76,1.29-5c0-2.41-0.43-4.05-1.29-5.17c-0.86-1.03-2.07-1.64-3.62-1.64
			c-1.64,0-2.84,0.52-3.62,1.55c-0.86,1.03-1.29,2.76-1.29,5c0,2.41,0.43,4.13,1.29,5.17c0.86,1.03,2.07,1.64,3.62,1.64
			C929.56,95.31,930.76,94.79,931.63,93.76"/>
		<polygon class="st0" points="952.98,78.69 957.2,78.69 950.83,98.58 944.37,98.58 937.91,78.69 942.56,78.69 947.73,95.22 		"/>
		<rect x="959.01" y="78.69" class="st0" width="4.39" height="19.89"/>
		<polygon class="st0" points="980.11,78.69 984.25,78.69 984.25,98.58 979.85,98.58 971.16,85.23 971.16,98.58 967.02,98.58 
			967.02,78.69 971.41,78.69 980.11,92.04 		"/>
		<path class="st0" d="M989.84,96.34c-1.81-1.64-2.67-4.22-2.67-7.66c0-3.36,0.95-5.94,2.76-7.66s4.48-2.58,7.92-2.58
			c1.55,0,2.93,0.17,4.31,0.43v3.62c-1.29-0.34-2.58-0.43-3.96-0.43c-1.46,0-2.67,0.26-3.62,0.69c-0.95,0.43-1.64,1.12-2.07,2.15
			c-0.43,0.95-0.69,2.24-0.69,3.79c0,1.64,0.26,2.84,0.69,3.88c0.43,0.95,1.12,1.64,2.07,2.07c0.86,0.43,2.07,0.69,3.53,0.69
			c1.29,0,2.67-0.17,4.05-0.6v3.62c-0.69,0.17-1.38,0.34-2.15,0.43s-1.55,0.17-2.33,0.17C994.15,98.84,991.57,97.98,989.84,96.34"/>
		<rect x="1004.57" y="78.69" class="st0" width="4.39" height="19.89"/>
		<path class="st0" d="M1025.93,98.58l-1.64-5.34h-7.41l-1.64,5.34h-4.31l6.46-19.89h6.37l6.46,19.89H1025.93z M1017.92,89.8h5.25
			l-2.67-8.53L1017.92,89.8z"/>
		<path class="st0" d="M1039.02,98.5V79.12c0.95-0.17,1.98-0.34,3.1-0.52c1.12-0.09,2.24-0.17,3.27-0.17c3.62,0,6.37,0.86,8.27,2.5
			c1.81,1.64,2.76,4.22,2.76,7.66c0,2.41-0.43,4.31-1.29,5.77c-0.86,1.46-2.15,2.58-3.96,3.27c-1.72,0.69-3.96,1.03-6.63,1.03
			C1042.55,98.75,1040.74,98.67,1039.02,98.5 M1049.1,94.53c0.86-0.43,1.55-1.12,2.07-2.07c0.43-0.95,0.69-2.24,0.69-3.88
			c0-1.55-0.26-2.84-0.69-3.79c-0.43-0.95-1.12-1.72-2.07-2.15c-0.86-0.43-2.07-0.69-3.44-0.69c-0.69,0-1.46,0.09-2.24,0.17v12.92
			c0.6,0.09,1.29,0.09,2.24,0.09C1047.03,95.22,1048.15,94.96,1049.1,94.53"/>
		<polygon class="st0" points="1063.57,95.05 1073.38,95.05 1073.38,98.58 1059.26,98.58 1059.26,78.69 1073.3,78.69 1073.3,82.13 
			1063.57,82.13 1063.57,86.61 1071.92,86.61 1071.92,90.14 1063.57,90.14 		"/>
		<path class="st1" d="M679.37,133.89c1.46,1.72,2.15,4.05,2.15,6.89c0,2.76-0.69,5.08-2.15,6.98c-1.46,1.89-3.7,3.27-6.89,4.31
			c-3.19,0.95-7.32,1.46-12.49,1.46c-1.81,0-3.88-0.09-6.11-0.26c-2.24-0.17-4.31-0.34-6.11-0.6v-42.29
			c2.07-0.43,4.31-0.78,6.8-1.12c2.5-0.26,4.91-0.43,7.23-0.43c6.46,0,11.2,1.03,14.12,3.01c3.01,1.98,4.48,5.08,4.48,9.13
			c0,2.33-0.6,4.31-1.81,6.03c-1.21,1.72-2.93,2.84-5.17,3.44C675.93,130.96,677.91,132.17,679.37,133.89 M657.07,116.32v10.77h6.2
			c2.84,0,4.91-0.43,6.11-1.38c1.21-0.95,1.81-2.33,1.81-4.22c0-1.38-0.26-2.41-0.86-3.27c-0.52-0.86-1.46-1.46-2.67-1.81
			c-1.21-0.34-2.84-0.6-4.91-0.6C660.94,115.81,658.96,115.98,657.07,116.32 M668.52,145.78c1.46-0.43,2.5-1.12,3.1-1.98
			c0.6-0.86,0.95-2.07,0.95-3.44c0-2.15-0.69-3.62-1.98-4.65c-1.29-0.95-3.44-1.46-6.46-1.46h-7.15v11.97
			c1.46,0.17,3.27,0.26,5.43,0.26C665.07,146.47,667.06,146.21,668.52,145.78"/>
		<path class="st1" d="M691.26,148.96c-3.01-3.01-4.48-7.75-4.48-14.04v-25.58h9.65v26.44c0,3.44,0.69,5.94,2.15,7.49
			s3.62,2.33,6.63,2.33s5.17-0.78,6.63-2.33s2.15-4.05,2.15-7.49v-26.44h9.47v25.49c0,6.29-1.46,11.02-4.39,14.04
			c-2.93,3.01-7.58,4.56-13.87,4.56C698.92,153.53,694.27,151.98,691.26,148.96"/>
		<polygon class="st1" points="740.69,145.26 762.22,145.26 762.22,152.92 731.22,152.92 731.22,109.35 761.88,109.35 
			761.88,117.01 740.69,117.01 740.69,126.83 758.86,126.83 758.86,134.49 740.69,134.49 		"/>
		<polygon class="st1" points="796.93,109.35 805.97,109.35 805.97,152.92 796.24,152.92 777.29,123.73 777.29,152.92 
			768.25,152.92 768.25,109.35 777.9,109.35 796.93,138.54 		"/>
		<path class="st1" d="M821.99,151.03c-3.1-1.64-5.43-4.13-7.15-7.49c-1.72-3.36-2.5-7.49-2.5-12.4c0-4.91,0.86-9.13,2.5-12.4
			s4.05-5.86,7.15-7.49c3.1-1.64,6.72-2.5,10.94-2.5s7.92,0.86,10.94,2.5c3.1,1.64,5.43,4.13,7.15,7.49c1.64,3.36,2.5,7.49,2.5,12.4
			c0,4.91-0.86,9.04-2.5,12.4c-1.64,3.36-4.05,5.86-7.15,7.49c-3.1,1.64-6.72,2.5-10.94,2.5
			C828.71,153.53,825.09,152.67,821.99,151.03 M840.94,142.33c1.81-2.33,2.76-5.94,2.76-10.94c0-5.17-0.95-8.96-2.76-11.28
			c-1.81-2.33-4.48-3.53-7.92-3.53c-3.44,0-6.11,1.12-8.01,3.44c-1.81,2.33-2.76,5.94-2.76,10.94c0,5.17,0.95,8.96,2.76,11.28
			s4.48,3.53,8.01,3.53C836.46,145.78,839.13,144.57,840.94,142.33"/>
		<path class="st1" d="M864.54,153.01c-2.15-0.34-4.05-0.78-5.86-1.38v-7.75c1.81,0.6,3.88,1.03,6.03,1.38
			c2.15,0.34,4.22,0.52,6.11,0.52c2.84,0,4.82-0.43,6.11-1.29c1.29-0.86,1.89-2.15,1.89-3.79c0-0.95-0.17-1.72-0.6-2.33
			c-0.34-0.6-1.03-1.21-1.89-1.64s-2.15-0.95-3.79-1.38l-3.27-0.86c-3.88-0.95-6.8-2.5-8.7-4.56c-1.89-2.07-2.93-4.74-2.93-8.01
			c0-4.22,1.55-7.49,4.56-9.82c3.1-2.33,7.58-3.44,13.61-3.44c1.89,0,3.79,0.09,5.51,0.34c1.81,0.26,3.36,0.52,4.82,0.95v7.84
			c-1.38-0.43-2.93-0.78-4.65-1.03c-1.72-0.26-3.44-0.34-5.17-0.34c-3.27,0-5.6,0.43-7.06,1.29c-1.38,0.86-2.15,2.15-2.15,3.7
			c0,0.86,0.17,1.64,0.52,2.24c0.34,0.6,0.86,1.12,1.72,1.55c0.78,0.43,1.89,0.86,3.36,1.21l3.27,0.86
			c4.22,1.03,7.41,2.58,9.39,4.65s3.01,4.74,3.01,8.1c0,2.76-0.69,5.17-2.07,7.15c-1.38,1.98-3.44,3.62-6.03,4.65
			c-2.58,1.03-5.77,1.64-9.47,1.64C868.76,153.53,866.69,153.36,864.54,153.01"/>
		<path class="st1" d="M938.17,152.92l-3.62-11.63h-16.19l-3.62,11.63h-9.39l14.12-43.58h14.04l14.12,43.58H938.17z M920.69,133.72
			h11.54l-5.77-18.6L920.69,133.72z"/>
		<rect x="951.95" y="109.35" class="st1" width="9.65" height="43.58"/>
		<path class="st1" d="M995.18,152.92l-11.2-16.02h-0.52c-1.38,0-2.93-0.09-4.56-0.17v16.1h-9.47v-42.63
			c2.07-0.43,4.31-0.78,6.63-1.12c2.33-0.26,4.74-0.43,6.98-0.43c6.29,0,11.02,1.12,14.21,3.44c3.1,2.33,4.74,5.77,4.74,10.59
			c0,3.1-0.78,5.68-2.24,7.84c-1.46,2.15-3.7,3.7-6.55,4.74l12.4,17.57L995.18,152.92L995.18,152.92z M978.91,129.59
			c1.64,0.17,3.27,0.26,4.74,0.26c3.19,0,5.51-0.52,7.06-1.64c1.55-1.12,2.24-2.84,2.24-5.34c0-2.41-0.69-4.13-2.15-5.25
			c-1.46-1.12-3.7-1.64-6.72-1.64c-1.72,0-3.44,0.17-5.17,0.43V129.59L978.91,129.59z"/>
		<polygon class="st1" points="1019.64,145.26 1041.17,145.26 1041.17,152.92 1010.17,152.92 1010.17,109.35 1040.83,109.35 
			1040.83,117.01 1019.64,117.01 1019.64,126.83 1037.9,126.83 1037.9,134.49 1019.64,134.49 		"/>
		<path class="st1" d="M1051.77,153.01c-2.15-0.34-4.05-0.78-5.86-1.38v-7.75c1.81,0.6,3.88,1.03,6.03,1.38
			c2.15,0.34,4.22,0.52,6.11,0.52c2.84,0,4.82-0.43,6.11-1.29c1.29-0.86,1.89-2.15,1.89-3.79c0-0.95-0.17-1.72-0.6-2.33
			c-0.34-0.6-1.03-1.21-1.89-1.64c-0.86-0.43-2.15-0.95-3.79-1.38l-3.27-0.86c-3.88-0.95-6.8-2.5-8.78-4.56
			c-1.89-2.07-2.93-4.74-2.93-8.01c0-4.22,1.55-7.49,4.56-9.82c3.1-2.33,7.58-3.44,13.61-3.44c1.89,0,3.79,0.09,5.51,0.34
			c1.81,0.26,3.36,0.52,4.82,0.95v7.84c-1.38-0.43-2.93-0.78-4.65-1.03c-1.72-0.26-3.44-0.34-5.17-0.34c-3.27,0-5.6,0.43-7.06,1.29
			c-1.38,0.86-2.15,2.15-2.15,3.7c0,0.86,0.17,1.64,0.52,2.24c0.34,0.6,0.86,1.12,1.72,1.55c0.78,0.43,1.89,0.86,3.36,1.21
			l3.27,0.86c4.22,1.03,7.41,2.58,9.39,4.65c1.98,2.07,3.01,4.74,3.01,8.1c0,2.76-0.69,5.17-2.07,7.15
			c-1.38,1.98-3.44,3.62-6.03,4.65c-2.67,1.03-5.77,1.64-9.39,1.64C1055.99,153.53,1053.92,153.36,1051.77,153.01"/>
		<rect x="505.66" y="38.3" class="st1" width="1.89" height="7.49"/>
		<rect x="510.31" y="38.3" class="st1" width="1.89" height="7.49"/>
		<path class="st1" d="M510.83,34.85h-8.35c-0.6,0-1.03,0.43-1.03,1.03v1.46h-4.13c-1.46,0-2.67,1.21-2.67,2.67l-0.34,4.56
			l-0.95,0.95c-0.69,0.69-0.69,1.72-0.69,1.98v5c0,0.52,0.43,1.03,1.03,1.03h0.78c0.43,1.46,1.81,2.5,3.36,2.5
			c1.89,0,3.53-1.55,3.53-3.53s-1.55-3.53-3.53-3.53c-1.38,0-2.5,0.78-3.1,1.89v-1.55h0.43c0.6,0,1.03-0.43,1.03-1.03
			c0-0.6-0.43-1.03-1.03-1.03h-0.43c0-0.17,0.09-0.26,0.09-0.34l0.95-0.95h5.77v6.46c0,0.6,0.43,1.03,1.03,1.03h1.29
			c1.03-0.69,2.07-1.38,3.19-1.98c0,0,0,0,0.09,0h-3.7V49.4h8.18c2.41-0.86,4.91-1.55,7.66-2.07h-15.76V36.83h10.68
			C513.07,36.14,511.95,35.45,510.83,34.85 M497.65,50.96c0.78,0,1.46,0.69,1.46,1.46s-0.69,1.46-1.46,1.46s-1.46-0.69-1.46-1.46
			C496.19,51.64,496.88,50.96,497.65,50.96 M501.44,43.89h-5.08l0.34-3.88v-0.09c0-0.34,0.26-0.69,0.6-0.69h4.13V43.89L501.44,43.89
			z"/>
		<path class="st1" d="M516.25,38.38h-1.21v7.49h1.89v-7.06C516.69,38.64,516.51,38.47,516.25,38.38"/>
		<path class="st1" d="M519.79,40.88v5h1.89v-3.53C521.08,41.83,520.39,41.4,519.79,40.88"/>
		<path class="st1" d="M469.4,70.07v-8.44l5.08,5l1.98-0.86V41.65l5.25-2.84c-0.6,1.21-1.03,2.41-1.29,3.7
			c-1.46,6.63,2.07,12.23,2.15,12.4h0.09c0.09,1.55,0.69,2.93,1.72,4.13l0.69,0.78c0.34,0.43,0.86,0.43,1.29,0.09l0.69-0.6
			l1.21,1.29c0.34,0.43,0.86,0.43,1.29,0.09c0.78-0.69,1.89-0.6,2.5,0.09c0.69,0.69,0.6,1.89-0.17,2.5c-0.78,0.69-1.89,0.6-2.5-0.09
			c-0.34-0.43-0.86-0.43-1.29-0.09c-0.43,0.34-0.43,0.86-0.09,1.29c1.29,1.46,3.62,1.55,5.08,0.26c1.46-1.38,1.64-3.62,0.34-5.08
			c-1.12-1.21-2.93-1.46-4.31-0.78l-0.69-0.78l0.69-0.6c0.43-0.34,0.43-0.86,0.09-1.29l-0.69-0.78c-0.95-1.03-2.07-1.72-3.36-2.07
			l0.09-0.09c-0.26-0.43-6.46-10.42,3.96-18.43l3.01-1.64l-0.6-2.24l-15.07,0.17v-3.53l-1.21-1.21h-7.06l-1.21,1.21v43.92l1.46-1.03
			L469.4,70.07z M487.06,56.64l0.09,0.17l-1.38,1.21l-0.09-0.17c-0.69-0.78-1.21-1.72-1.29-2.76
			C485.51,55.26,486.37,55.86,487.06,56.64 M486.03,33.47c-0.34,0.26-0.69,0.6-0.95,0.86l-2.84,1.55l-3.27-2.41H486.03z
			 M476.47,34.76l3.36,2.41l-3.36,1.81V34.76z M474.14,62.93l-4.22-4.13l4.22-3.96V62.93z M474.14,49.66l-3.96-2.93l3.96-3.19V49.66
			z M474.14,32.44v6.11l-4.13-3.36l4.13-4.05V32.44z M469.4,28.91h3.53l-3.53,3.53V28.91z M469.4,37.69l4.05,3.27l-4.05,3.27V37.69z
			 M469.4,49.15l4.05,3.01l-4.05,3.88V49.15z"/>
		<path class="st1" d="M484.3,101.16c3.1,0,5.77-2.33,6.11-5.34l0,0c0.26-1.64-0.26-3.27-1.21-4.56c-1.03-1.29-2.5-2.15-4.05-2.41
			c-1.64-0.26-3.27,0.26-4.56,1.21c-1.29,1.03-2.15,2.5-2.33,4.05c-0.43,3.36,1.98,6.55,5.34,6.98
			C483.7,101.16,484.04,101.16,484.3,101.16 M482.41,96.43c-0.34-0.52-0.52-1.12-0.43-1.72c0.17-1.21,1.12-2.07,2.33-2.07
			c0.09,0,0.17,0,0.34,0c0.6,0.09,1.21,0.43,1.55,0.86c0.34,0.52,0.52,1.12,0.43,1.72c-0.09,0.6-0.43,1.21-0.95,1.55
			c-0.52,0.34-1.12,0.52-1.72,0.43l0,0C483.36,97.2,482.75,96.86,482.41,96.43"/>
		<path class="st1" d="M625.29,98.5c-0.26,0.26-0.43,0.43-0.52,0.6c-0.52,0.6-1.64,1.72-2.33,2.24l-0.34,0.26
			c-0.6,0.52-1.38,0.86-2.15,1.21c-2.07,0.78-3.36,2.33-3.88,4.56c-0.26-1.12-0.43-2.24-0.34-3.01c0.26-1.98,1.29-3.62,2.41-5.43
			c0.26-0.43,0.52-0.86,0.78-1.29c0.26-0.34,0.17-0.78,0-1.21c-0.26-0.34-0.6-0.52-1.03-0.52c-2.58,0.26-4.74,1.29-6.72,2.5
			c0.34-1.29,1.29-2.33,2.33-3.53c0.17-0.17,0.26-0.34,0.43-0.52c0.34-0.43,0.34-1.03,0-1.46c-0.34-0.43-0.95-0.52-1.38-0.26
			c-1.55,0.86-3.01,1.55-4.56,2.33c-1.29,0.6-2.58,1.12-3.88,1.55c-1.03,0.34-1.89,0.86-2.76,1.46c0.17-0.43,0.43-0.86,0.78-1.38
			c0.6-0.78,1.38-1.46,2.15-2.15c0.34-0.34,0.78-0.69,1.12-1.03c1.55-1.55,2.93-3.19,3.96-5c0.17-0.26,0.17-0.69,0.09-0.95
			c-0.09-0.34-0.34-0.6-0.69-0.69c-1.12-0.34-2.33-0.52-3.53-0.43c-0.69,0-1.12,0.34-1.46,0.6l-0.09,0.09l-0.09,0.09
			c0-0.09,0.09-0.17,0.09-0.26c0.26-0.78,0.69-1.38,1.29-1.89c0.09-0.09,0.17-0.09,0.17-0.17c0.43-0.6,0.26-1.12,0.17-1.29
			c-0.09-0.17-0.34-0.69-1.12-0.78c-0.17,0-0.26,0-0.43,0c-0.86,0.26-1.81,0.26-2.67,0.09c-1.81-0.43-3.62-0.43-5.68-0.17
			c0.09-0.09,0.17-0.17,0.26-0.26c1.21-1.12,2.58-1.72,4.56-2.24c1.21-0.34,2.24-0.86,3.27-1.38c0.34-0.17,0.69-0.34,1.03-0.52
			c0.78-0.43,0.95-0.95,0.95-1.29c0-0.34-0.17-0.95-0.95-1.29c-1.03-0.52-2.07-0.6-3.1-0.52c0.52-0.26,0.95-0.69,1.38-1.29
			c0.34-0.52,0.95-0.69,1.89-1.03h0.09c0.43-0.17,0.69-0.52,0.78-0.95s-0.17-0.86-0.52-1.12c-0.17-0.09-0.34-0.26-0.52-0.34
			c-0.34-0.17-0.6-0.43-0.95-0.6c-1.46-1.03-2.33-2.07-2.93-3.27c-0.52-1.12-1.46-1.64-2.15-1.98c-0.69-0.34-1.38-0.6-2.07-0.78
			c1.46-0.26,2.84-0.26,4.22,0.34c1.89,0.69,3.7,1.55,5.34,2.58l0,0c0.17,0.09,0.6,0.52,1.29,0.34c0.43-0.09,0.86-0.52,0.86-0.95
			c0.34-2.84-0.6-4.91-2.15-6.72c1.46,0.43,2.93,1.12,4.65,2.24c0.43,0.26,1.03,0.26,1.38-0.17c0.34-0.34,0.43-0.95,0.17-1.38
			c-0.52-0.86-0.6-0.95-0.69-1.29c-0.09-0.17-0.17-0.43-0.34-0.78c-0.17-0.43-0.17-0.95-0.09-1.55c0-0.26,0.09-0.6,0.09-0.86
			c0-1.03,0.43-2.15,0.95-3.19c-0.52-0.43-1.12-0.95-1.72-1.46c-0.78,1.46-1.46,3.01-1.46,4.65c0,0.26,0,0.52,0,0.69
			c-0.09,0.6-0.09,1.21,0.09,1.89c-2.07-0.95-4.05-1.38-6.03-1.38c-0.43,0-0.86,0.26-1.03,0.69c-0.17,0.43-0.09,0.95,0.26,1.21
			c1.89,1.72,3.44,3.27,3.79,5.43c-1.46-0.78-2.93-1.46-4.48-2.07c-3.62-1.38-6.8-0.34-9.82,1.03c-0.43,0.17-0.69,0.6-0.69,1.03
			c0,0.43,0.26,0.86,0.69,1.03s0.78,0.26,1.03,0.26c1.64,0.26,3.27,0.52,4.74,1.21c0.6,0.26,0.95,0.52,1.03,0.86
			c0.69,1.55,1.72,2.84,3.36,4.05c-0.43,0.26-0.86,0.6-1.21,1.12c-0.43,0.6-0.86,0.78-1.81,0.69c-0.86-0.26-1.29,0.26-1.46,0.52
			c-0.17,0.26-0.43,0.86,0.09,1.64l0,0c0.78,1.38,2.07,1.98,3.62,1.89c-0.52,0.26-1.12,0.52-1.64,0.69
			c-1.81,0.52-3.88,1.21-5.51,2.76c-0.34,0.34-0.78,0.52-1.46,0.52h-0.09c-1.12-0.09-1.55,0.52-1.72,0.86
			c-0.34,0.95,0.34,1.72,0.69,2.07c0.43,0.43,0.95,0.78,1.64,0.78c0.69,0.09,1.29,0,1.89-0.17c1.98-0.34,3.79-0.34,5.51,0
			c0.43,0.09,0.78,0.17,1.21,0.17c-0.17,0.34-0.34,0.69-0.43,1.03c-0.26,1.03-0.69,1.46-1.38,1.64c-0.78,0.26-1.03,0.86-1.03,1.12
			c-0.09,0.26-0.09,0.86,0.69,1.46c1.03,0.78,2.07,0.34,2.58,0.09c0.78-0.34,1.46-0.86,2.07-1.29c0.17-0.09,0.34-0.26,0.52-0.34
			l0.09-0.09c0.09-0.09,0.26-0.17,0.34-0.26c0.43,0,0.86,0,1.29,0c-0.78,1.12-1.72,2.24-2.76,3.27c-0.34,0.34-0.69,0.69-1.03,1.03
			c-0.78,0.78-1.64,1.55-2.41,2.5c-1.21,1.46-1.72,3.19-1.72,5c0,0.34,0.17,0.6,0.43,0.86c0.26,0.17,0.6,0.26,0.95,0.26
			c0.52-0.09,0.86-0.34,1.03-0.52l0.17-0.17c1.21-0.86,2.41-1.64,3.7-2.07c1.29-0.52,2.67-1.03,4.05-1.64l0.43-0.17
			c-0.52,1.12-0.78,2.41-0.52,3.96c0.09,0.34,0.34,0.69,0.69,0.86c0.34,0.17,0.78,0.09,1.03-0.09c1.72-1.21,3.36-2.24,5.08-2.84
			c-0.95,1.64-1.89,3.36-2.07,5.34c-0.34,2.58,1.29,7.32,2.5,8.44c0.34,0.26,0.78,0.34,1.21,0.17c0.43-0.17,0.69-0.52,0.69-0.95
			c0.09-1.21,0.17-2.24,0.34-3.36c0.26-1.72,1.03-2.76,2.5-3.36c1.03-0.34,2.07-0.78,2.93-1.64l0.26-0.26
			c0.43-0.43,0.95-0.86,1.38-1.29c0.26-0.26,0.43-0.43,0.6-0.6C625.8,100.22,625.63,99.36,625.29,98.5"/>
		<rect x="526.59" y="15.13" class="st1" width="2.41" height="2.41"/>
		<rect x="535.72" y="15.13" class="st1" width="2.41" height="2.41"/>
		<path class="st1" d="M523.92,12.03l7.32-5.34v4.74c0,0.34,0.17,0.6,0.43,0.78l0.09-0.09v0.09c0.34,0.26,0.78,0.26,1.12,0
			l0.34-0.26l0,0l7.32-5.34v3.7v1.03c0,0.34,0.17,0.6,0.43,0.78l0.09-0.09v0.09c0.34,0.26,0.78,0.26,1.12,0l0.34-0.26l0,0l7.32-5.34
			v2.5h1.89V4.71c0-0.34-0.17-0.6-0.43-0.78l0,0V3.85c-0.34-0.26-0.78-0.26-1.12,0l-0.34,0.26l0,0l-7.41,5.34V5.83V4.88
			c0-0.34-0.17-0.6-0.43-0.78l0,0V4.02c-0.34-0.26-0.78-0.26-1.12,0l-0.34,0.26l0,0l-7.41,5.34V5.83V4.88c0-0.34-0.17-0.6-0.43-0.78
			l0,0V4.02c-0.34-0.26-0.78-0.26-1.12,0l-9.3,6.72c-0.26,0.17-0.43,0.43-0.43,0.78v10.68c0.6,0.43,1.29,0.86,1.89,1.38
			L523.92,12.03L523.92,12.03z"/>
		<path class="st1" d="M515.05,28.99l1.03,0.6l1.21-2.07l-1.03-0.6c-1.12-0.6-2.24-1.21-3.27-1.72l-1.12-0.52l-1.03,2.15l1.12,0.52
			C512.98,27.79,514.02,28.39,515.05,28.99"/>
		<path class="st1" d="M559.14,47.34l1.21-0.26l-0.43-2.41l-1.21,0.26c-1.12,0.26-2.24,0.34-3.44,0.52l-1.21,0.09l0.17,2.41
			l1.21-0.09C556.73,47.68,558.02,47.51,559.14,47.34"/>
		<path class="st1" d="M531.93,40.79l1.38-1.98l-2.84-1.89c0,0-0.43-0.34-1.12-0.86l-0.95-0.69l-1.38,1.98l0.95,0.69
			c0.69,0.52,1.21,0.86,1.21,0.86L531.93,40.79z"/>
		<path class="st1" d="M521.34,33.21c0.34,0.26,0.95,0.69,1.64,1.21l0.95,0.69l1.46-1.98l-0.95-0.69c-0.69-0.52-1.29-0.95-1.64-1.21
			c-0.43-0.34-0.86-0.69-1.29-0.95l-0.95-0.69l-1.46,1.98l0.95,0.69C520.47,32.61,520.91,32.87,521.34,33.21"/>
		<path class="st1" d="M550.36,47.94l0.26-2.41l-1.21-0.09c-1.12-0.09-2.24-0.26-3.44-0.6l-1.21-0.26l-0.6,2.33l1.21,0.26
			c1.29,0.34,2.58,0.52,3.79,0.6L550.36,47.94z"/>
		<path class="st1" d="M540.54,45.7l0.95-2.24l-1.12-0.52c-1.03-0.52-2.15-1.03-3.19-1.55l-1.03-0.6l-1.21,2.15l1.03,0.6
			c1.12,0.6,2.24,1.21,3.36,1.72L540.54,45.7z"/>
		<path class="st1" d="M610.39,79.98c1.72,9.73,11.2,15.24,11.8,15.59c0.17,0.09,1.21,0.69,2.58,1.38
			c-0.78-1.21-1.38-2.58-1.81-4.05c-1.89-1.21-8.61-6.03-9.99-13.35c-0.86-4.91,0.78-10.08,4.91-15.42c0-0.34,0.09-0.78,0.09-1.12
			c0-0.95-0.09-1.81-0.34-2.67c-0.43,0.43-0.69,0.69-0.69,0.69s0,0-0.09,0.09C611.51,67.4,609.27,73.78,610.39,79.98"/>
		<path class="st1" d="M602.03,141.13c-0.17,0-0.34-0.09-0.52-0.09c-0.6-0.6-2.33-3.19-3.7-5.25c-1.72-2.58-3.62-5.51-5.17-7.58
			c1.21-0.86,1.72-2.5,1.55-4.65c0-0.09-0.52-4.91-2.58-5.17c-0.6-0.09-1.29,0.26-1.55,1.03v0.09c-0.43,1.21-1.03,2.84-2.24,3.79
			c-0.34-0.17-0.78-0.34-1.12-0.43c0.78-1.64,1.03-3.79-0.6-5.86l0,0c-0.34-0.6-0.86-0.69-1.21-0.69c-0.43,0-0.86,0.26-1.03,0.69
			c-0.17,0.26-0.26,0.52-0.34,0.78c-0.34,0.95-0.78,1.89-2.93,2.93c-1.89,0.95-2.93,2.41-3.19,4.13c-0.78-0.43-1.55-0.69-2.15-0.86
			c-1.29-0.26-2.67,0.09-3.79,0.86c-0.78,0.6-1.21,1.29-1.29,1.98c-0.09,0.95,0.6,1.89,1.64,2.76c-1.12,0.26-2.15,0.34-3.19,0.52
			c-0.6,0.95-1.29,1.89-1.98,2.67c2.67-0.17,5.51-0.69,8.53-1.38c0.52-0.09,0.86-0.52,0.95-1.03s-0.17-1.03-0.6-1.29
			c-1.21-0.69-2.41-1.64-2.76-2.15c0.26-0.34,1.12-0.78,1.98-0.6c1.12,0.26,2.67,1.21,3.19,1.98l0.09,0.09
			c0.69,1.03,1.46,0.69,1.72,0.6c0.09,0,1.03-0.52,0.6-1.64c-1.21-3.19,0.78-4.22,1.46-4.56c1.55-0.78,2.5-1.64,3.1-2.41
			c-0.17,1.64-1.72,3.01-1.98,3.19c-0.52,0.43-0.6,1.21-0.26,1.72c0.43,0.52,1.21,0.69,1.72,0.26c0.17-0.09,1.38-0.95,2.58-0.17
			c0.69,0.52,1.21,0.34,1.46,0.26c1.55-0.69,2.5-2.07,3.1-3.27c0.26,0.95,0.34,2.07,0.09,3.01c-0.17,0.69-0.52,0.86-0.78,0.95
			c-0.17,0.09-0.95,0.34-1.21,1.12c-0.09,0.43,0,0.86,0.26,1.21c1.64,1.89,3.88,5.34,5.94,8.35c2.76,4.13,3.79,5.68,4.56,6.11
			c0.26,0.17,0.6,0.26,1.21,0.34c0.17,0,0.34,0.09,0.52,0.09c0.26,0.86-0.17,2.41-0.69,3.44l-0.17,0.09
			c-0.26,0.09-0.52,0.26-0.69,0.43c-0.6,0.86-1.72,2.24-2.15,2.58c-0.78,0.69-1.81,0.26-3.27-0.43c-0.6-0.26-1.21-0.52-1.72-0.69
			c-2.5-0.6-5.6-1.12-9.3-0.34c-1.72,0.34-3.44,0.95-5.17,1.81c-2.07,1.03-3.19,5.6-3.53,7.58c-0.17,0.69,0.34,1.29,0.95,1.46
			c0.09,0,0.17,0,0.26,0c0.6,0,1.12-0.43,1.21-1.03c0.52-2.76,1.64-5.51,2.24-5.86c1.55-0.78,3.01-1.29,4.56-1.64
			c3.19-0.69,5.94-0.17,8.18,0.34c0.34,0.09,0.78,0.26,1.29,0.52c1.55,0.78,3.88,1.89,5.94,0.09c0.6-0.52,1.72-1.89,2.24-2.58
			l0.26-0.09c0.34-0.09,0.6-0.34,0.78-0.6c0.26-0.43,2.33-4.31,0.69-6.72C603.58,141.47,602.89,141.3,602.03,141.13"/>
		<path class="st1" d="M606.77,113.91c-3.79,0-7.32,1.64-9.73,4.31h-0.09v0.17c-0.26,0.34-0.52,0.6-0.78,0.95l0.43,1.12
			c3.01,0.43,6.2,3.7,6.2,3.7l0.43,0.52l0.6-0.17c0.6-0.17,1.46,0,2.41,0.34l-3.36,6.2c-0.43,0-0.86,0-1.29-0.09
			c-0.26,0-0.52,0-0.78,0c-0.6,0-1.29,0-1.89,0c-0.69,0-1.46,0-2.24,0l2.33,3.01c1.21,0,3.27,0,4.22,0.09c0.09,0,0.26,0,0.34,0
			c1.12,0.09,2.24,0.17,3.36,0.34c2.67,0.34,5.34,1.03,7.84,1.81c0.6-0.95,1.21-1.72,1.81-2.58c-3.53-1.29-7.32-2.07-11.28-2.5
			l2.84-5.34c0.6,0.43,1.03,0.95,1.21,1.46l0.34,1.12l1.03-0.34c1.03-0.34,2.93,0.43,4.82,2.24l0,0l0.09,0.09
			c0.26,0.26,0.52,0.6,0.86,0.95l0.95,0.17c1.12-1.81,1.72-3.88,1.72-5.94C619.26,119.08,613.66,113.91,606.77,113.91
			 M616.59,128.21c-1.81-1.55-3.79-2.5-5.43-2.41c-1.38-2.15-4.74-3.88-7.15-3.62c-0.78-0.78-2.58-2.24-4.65-3.19
			c1.89-1.81,4.56-2.84,7.41-2.84c5.68,0,10.25,4.22,10.25,9.39C617.02,126.4,616.93,127.35,616.59,128.21"/>
		<path class="st1" d="M576.37,145.78c0.95-0.43,1.72-0.43,2.15-0.26c0.52,0.17,1.12-0.09,1.46-0.52s0.43-0.95,0.26-1.46
			c-0.34-0.78-0.86-1.38-1.46-1.89c-0.78-0.52-1.64-0.78-2.76-0.69c-2.15-2.5-4.82-4.39-6.63-4.74c-0.09,0-1.12-0.26-1.89-0.17
			c-1.98,0.17-3.88,0.86-5.43,2.15c-1.55,1.29-2.67,3.1-3.36,5.17l0,0c-0.17,0.43-0.43,1.55-0.43,2.33
			c-0.17,1.89,0.17,3.96,1.12,6.11l0.52,1.03c1.03,2.07,2.58,3.96,4.05,5.08c1.12,0.86,2.07,1.12,2.76,1.12
			c0.34,0,0.69-0.09,0.95-0.17c1.46-0.6,2.07-2.76,1.72-5.86l0,0c-0.09-0.69-0.43-3.27-0.69-4.13c-0.26-0.78-0.43-1.55-0.52-2.24
			c0,0-0.43-3.01,1.12-3.53c1.38-0.43,2.41,0.09,2.93,0.78c-0.17,0.26-0.26,0.69-0.34,1.12c-0.17,0.95-0.09,2.33,1.12,3.62
			c0.43,0.43,1.03,0.6,1.55,0.34c0.52-0.26,0.95-0.78,0.86-1.38C575.33,146.72,575.68,146.03,576.37,145.78 M566.89,157.23
			c-0.26,0.09-0.95-0.09-1.81-0.69c-1.21-0.86-2.33-2.33-3.27-3.96c1.12-1.12,2.76-2.24,5.25-1.81c0.17,0.86,0.34,2.24,0.34,2.5l0,0
			C567.67,155.16,567.24,156.97,566.89,157.23 M562.5,147.76c0.26-0.17,0.6-0.34,0.69-0.34c0.17,0,0.43-0.09,0.78-0.09
			c0.09,0.34,0.09,0.86-0.09,1.72c-0.17,0.09-0.34,0.17-0.52,0.17C562.93,148.62,562.67,148.1,562.5,147.76 M573.7,145.95
			c-0.09-0.86,0.34-1.46,0.34-1.55c0.17-0.26,0.17-0.6,0.09-0.95c-0.43-0.95-1.12-1.64-2.07-2.07c-1.03-0.43-2.24-0.52-3.44-0.17
			c-0.86,0.26-1.55,0.78-1.98,1.64c-0.69,1.29-0.78,3.36-0.17,5.77c-0.17,0-0.34,0-0.52,0c0.09-0.95,0-1.72-0.09-2.07
			c-0.17-0.52-0.43-0.86-0.86-1.03c-1.03-0.43-2.15-0.09-2.33-0.09c-0.09,0-1.29,0.34-1.98,1.21c-0.69,0.86,0.09,2.07,0.34,2.41
			c0.09,0.17,0.26,0.34,0.34,0.6c0.09,0.17,0.17,0.34,0.26,0.43c-0.26,0.17-0.52,0.34-0.78,0.52c-0.52-1.29-0.95-3.01-0.78-4.74
			v-0.09c0-0.34,0.17-1.12,0.26-1.55l0.09-0.17v-0.09c0.52-1.81,1.46-3.27,2.76-4.31c1.03-0.86,2.5-1.46,4.39-1.72
			c2.58-0.34,6.03,3.19,7.06,4.56c0.17,0.26,0.52,0.43,0.86,0.43c1.12-0.09,1.72,0.17,2.15,0.52l0,0c-0.69,0-1.46,0.17-2.33,0.52
			C574.65,144.4,574.04,145.09,573.7,145.95"/>
		<path class="st1" d="M565.43,153.44c-0.26-0.17-0.6-0.17-0.95-0.17c-0.34,0.09-0.6,0.26-0.78,0.6c-0.17,0.26-0.17,0.6-0.09,0.95
			c0.09,0.34,0.26,0.6,0.6,0.78c0.17,0.09,0.43,0.17,0.6,0.17c0.09,0,0.17,0,0.34-0.09c0.34-0.09,0.6-0.26,0.78-0.6
			c0.17-0.26,0.17-0.6,0.17-0.95C565.86,153.87,565.69,153.61,565.43,153.44"/>
		<rect x="538.99" y="26.32" class="st1" width="6.55" height="2.41"/>
		<rect x="538.99" y="30.37" class="st1" width="6.55" height="2.41"/>
		<path class="st1" d="M557.68,15.47h-2.5c-0.17,0-0.34,0.17-0.34,0.34v2.24h-2.24c-0.17,0-0.34,0.17-0.34,0.34v2.5
			c0,0.17,0.17,0.34,0.34,0.34h2.24v2.24c0,0.17,0.17,0.34,0.34,0.34h2.5c0.17,0,0.34-0.17,0.34-0.34v-2.24h2.24
			c0.17,0,0.34-0.17,0.34-0.34v-2.5c0-0.17-0.17-0.34-0.34-0.34h-2.24v-2.24C558.02,15.56,557.94,15.47,557.68,15.47"/>
		<path class="st1" d="M559.92,36.92v-5.17h1.38v-1.38h-2.07h-5.6h-2.07v1.38h1.38v6.46c0.43,0,0.95-0.09,1.38-0.09v-6.29h4.22v5.6
			C558.97,37.18,559.49,37.09,559.92,36.92"/>
		<path class="st1" d="M547.17,11.51v10.85h-10.85c-0.6,0-1.03,0.43-1.03,1.03v8.7c0.69,0.43,1.38,0.95,2.07,1.38v-9.04h9.82v13.26
			c0.69,0.17,1.38,0.26,2.07,0.34V12.54h14.3v22.22l2.07-1.55v-8.78h9.82v4.22l0.43,0.34c0.43-0.52,0.95-0.86,1.64-0.95v-4.56
			c0-0.6-0.43-1.03-1.03-1.03H565.6V11.51c0-0.6-0.43-1.03-1.03-1.03h-16.36C547.69,10.48,547.17,10.91,547.17,11.51"/>
		<path class="st1" d="M555.44,109l-0.17,7.84c0.43,0,0.86,0.09,1.21,0.17c0.43,0.09,0.78,0.26,1.21,0.43l3.53-6.98
			C561.3,110.47,559.06,108.05,555.44,109"/>
		<path class="st1" d="M553.46,117.1l-2.41-7.41c0,0-3.27-0.17-5.17,3.1l5.43,5.6C552,117.79,552.68,117.36,553.46,117.1"/>
		<path class="st1" d="M541.92,122.01l7.84,0.17c0-0.43,0.09-0.86,0.17-1.29c0.09-0.43,0.26-0.78,0.43-1.12l-6.98-3.53
			C543.38,116.24,540.89,118.39,541.92,122.01"/>
		<path class="st1" d="M545.62,131.57l5.68-5.43c-0.6-0.6-1.03-1.29-1.29-2.07l-7.49,2.41C542.52,126.4,542.35,129.67,545.62,131.57
			"/>
		<path class="st1" d="M549.15,134.15L549.15,134.15L549.15,134.15c0.09,0.09,0.09,0.09,0.17,0.17l0,0l0.09,0.09l0,0
			c0.09,0,0.09,0.09,0.17,0.09l0,0c0.09,0.09,0.09,0.09,0.17,0.17l0,0c0.09,0.09,0.09,0.09,0.17,0.17h0.09
			c0.09,0.09,0.17,0.09,0.17,0.17c0,0,0,0,0.09,0c0.09,0.09,0.17,0.09,0.26,0.17l0,0c0.09,0.09,0.17,0.09,0.26,0.17c0,0,0,0,0.09,0
			c0.09,0.09,0.17,0.09,0.26,0.17h0.09c0.09,0.09,0.26,0.09,0.34,0.09l0,0c0.09,0,0.26,0.09,0.34,0.09H552
			c0.09,0,0.26,0.09,0.34,0.09h0.09c0.17,0,0.26,0,0.43,0.09l0,0c0.17,0,0.26,0,0.43,0h0.09c0.09,0,0.26,0,0.34,0l0,0
			c0.09,0,0.26,0,0.34-0.09h0.09c0.09,0,0.17,0,0.26-0.09h0.09c0.17,0,0.26-0.09,0.43-0.09l0,0v-0.17l0.17-7.66
			c-0.43,0-0.86-0.09-1.29-0.17c-0.43-0.09-0.78-0.26-1.12-0.43l-3.01,5.86L549.15,134.15
			C549.07,134.15,549.07,134.15,549.15,134.15L549.15,134.15"/>
		<path class="st1" d="M564.4,131.91l-5.43-5.68c-0.6,0.6-1.29,1.03-2.07,1.29l2.41,7.49C559.23,134.93,562.5,135.18,564.4,131.91"
			/>
		<path class="st1" d="M568.45,122.52l-7.84-0.17c0,0.43-0.09,0.78-0.17,1.21c-0.09,0.43-0.26,0.78-0.43,1.21l6.98,3.62
			C566.98,128.38,569.48,126.23,568.45,122.52"/>
		<path class="st1" d="M567.84,118.22c0,0,0.17-3.27-3.1-5.17l-5.6,5.43c0.6,0.6,1.03,1.38,1.29,2.15L567.84,118.22z"/>
		<path class="st1" d="M559.14,122.26c0-2.15-1.81-3.96-3.96-3.96s-3.96,1.81-3.96,3.96c0,2.15,1.81,3.96,3.96,3.96
			S559.14,124.42,559.14,122.26"/>
		<rect x="555.53" y="78.69" class="st1" width="2.41" height="2.41"/>
		<rect x="555.53" y="82.82" class="st1" width="2.41" height="2.41"/>
		<rect x="581.54" y="78.69" class="st1" width="2.41" height="2.41"/>
		<rect x="581.54" y="82.82" class="st1" width="2.41" height="2.41"/>
		<rect x="586.96" y="43.2" class="st1" width="2.41" height="2.41"/>
		<rect x="572.32" y="35.63" class="st1" width="2.41" height="2.41"/>
		<path class="st1" d="M492.23,112.02c8.01,1.81,16.36,6.2,20.84,11.2l2.76-0.95c-4.65-5.86-13.95-10.85-22.99-12.92
			c-8.01-2.07-17.83-1.46-25.84,2.15v3.1C474.83,110.29,484.56,110.04,492.23,112.02"/>
		<path class="st1" d="M495.84,107.28L495.84,107.28c8.35,1.89,18.43,8.27,22.82,13.69l2.67-0.95l-0.09-0.09
			c-4.13-5.68-13.95-12.23-22.82-14.81c0.52-0.26,1.38-0.86,1.55-0.95c0.43-0.34,0.78-0.69,1.21-1.03
			c8.53,2.5,18.86,10.08,22.65,15.59c0,0,0,0.09,0.09,0.09l2.67-0.95c-0.17-0.26-0.26-0.43-0.43-0.69
			c-0.86-1.29-1.98-2.58-3.36-3.96c0.69-0.43,2.33-1.64,2.84-1.89c6.46-3.79,23.68-8.96,32.38-6.72c0.26,0.17,0.43,0.34,0.43,0.34
			c2.41,1.72,5.94,2.93,9.56,3.19c0.17,0,0.43,0,0.6,0c0.6,0,1.12,0,1.64,0c-0.09,0.26,4.05-0.6,5.25-1.21
			c0.17-0.09,0.26-0.09,0.43-0.17c1.55-0.6,3.1-0.78,5-0.34c0.69,0.17,1.46,0.69,2.15,1.21c0.09,0.09,0.17,0.09,0.26,0.17
			c0.34,0.26,0.6,0.52,0.86,0.69c2.84,2.15,6.03,4.31,9.82,4.74c2.24,0.26,4.74,0,6.98-0.52c0.43-0.09,0.78-0.17,1.21-0.26
			c1.29-0.34,2.41-1.21,3.79-1.38c1.98-0.26,4.82-0.6,7.06,0.17c-0.52-1.03-1.03-2.07-1.12-3.19c-1.64-0.09-0.09,0-1.89-0.09
			c-2.84-0.17-4.82,0.09-7.84,1.29c0,0-0.52,0.17-1.29,0.34c-1.29,0.34-3.36,0.78-4.91,0.78c-0.09,0-0.26,0-0.34,0
			c-2.76-0.26-6.03-1.55-8.53-3.19c-0.17-0.17-0.43-0.26-0.6-0.43c-0.86-0.69-1.72-1.38-2.67-2.07c-0.52-0.34-1.03-0.6-1.55-0.86
			c-2.67-0.95-5.43-0.86-7.66,0.17c-1.81,0.78-4.05,1.03-6.29,1.03c-4.31-0.17-9.39-3.7-9.39-3.7c-3.1-2.67-6.89-4.82-11.02-6.46
			h-0.09c0,0,0,0,0.09,0c3.79-2.15,8.1-3.7,12.66-4.56c0.78-0.17,1.64-0.26,2.5-0.43c0.95-0.09,1.89-0.26,2.93-0.26
			c1.21-0.09,5.6-0.09,5.6-0.09c1.21,0,2.5,0,3.7,0.09c8.18,0.52,15.85,3.27,21.7,7.58c0.26-1.03,1.03-2.15,1.72-2.84
			c-3.01-2.24-6.8-3.96-10.85-5.25l-0.09-13.78c0-0.34-0.17-0.6-0.34-0.86c-0.26-0.26-0.52-0.34-0.86-0.34h-6.46v-0.69
			c0-0.43-0.26-0.86-0.6-1.03l-8.53-5.43v-1.29h6.46c0.34,0,0.69-0.17,0.86-0.34c0.17-0.17,0.34-0.52,0.34-0.86V60.6
			c0-0.34-0.17-0.69-0.34-0.86c-0.26-0.26-0.52-0.34-0.86-0.34l0,0l-7.75,0.09c-0.34,0-0.69,0.17-0.86,0.34
			c-0.26,0.26-0.34,0.52-0.34,0.86v6.37l-8.44,5.51c-0.34,0.26-0.6,0.6-0.6,1.03v0.69h-6.46c-0.34,0-0.69,0.17-0.86,0.34
			s-0.34,0.52-0.34,0.86l0.09,14.21c-0.17,0.09-0.26,0.09-0.43,0.17c-0.69,0.26-1.29,0.52-1.89,0.86c-0.17,0.09-0.34,0.17-0.52,0.26
			c-0.95-1.12-1.72-2.33-2.33-3.62c-0.43-0.95-0.78-1.89-1.03-2.93c-0.26-1.03-0.34-2.07-0.34-3.1s0.17-2.15,0.52-3.19
			c0-0.17,1.03-3.36,1.03-3.36c-1.29-0.17-2.58-0.26-3.96-0.26c0-0.52,0-1.03,0-1.55c0-0.43,0-0.78,0.09-1.21
			c0-0.17,0-0.34,0.09-0.6c0-0.09,0-0.17,0-0.17c0-0.09,0-0.26,0.09-0.34c0.09-0.43,0.17-0.78,0.26-1.21
			c0.09-0.17,0.09-0.34,0.17-0.52l0.09-0.17c0-0.09,0.09-0.17,0.09-0.26c0.17-0.34,0.43-0.69,0.69-1.03
			c0.09-0.09,0.17-0.17,0.17-0.26c0,0,0.09-0.09,0.17-0.17c0.17-0.17,0.26-0.34,0.43-0.52c0.26-0.34,0.52-0.6,0.86-0.86
			c0.17-0.09,0.26-0.26,0.43-0.34c0.09-0.09,0.09-0.09,0.17-0.17l0.17-0.09c0.26-0.26,0.6-0.43,0.95-0.6
			c0.17-0.09,0.26-0.17,0.43-0.26c0.09-0.09,0.17-0.09,0.26-0.09c0,0,0.17-0.09,0.26-0.09c0.6-0.26,1.21-0.43,1.81-0.52
			c0.09,0,0.26-0.09,0.43-0.09h0.09c0.09,0,0.17,0,0.26,0c0.34,0,0.6-0.09,0.95-0.09s0.6,0,0.95,0c0.17,0,0.34,0,0.43,0.09h0.17
			h0.09c0.78,0.09,1.46,0.34,2.24,0.52c0.17,0.09,0.34,0.09,0.52,0.17c0.09,0,0.17,0.09,0.17,0.09c-0.09,0-0.09-0.09-0.17-0.09
			c0.09,0,0.09,0.09,0.17,0.09c0.17,0.09,0.43,0.17,0.6,0.34c0.43,0.26,0.86,0.43,1.29,0.6c2.41,0.78,4.91-0.17,7.32-0.52
			c0.43-0.09,0.86-0.17,1.29-0.26v-2.41c-0.34,0.09-0.69,0.09-1.03,0.17c-0.95,0.17-1.89,0.34-2.93,0.6
			c-0.26,0.09-0.6,0.09-0.86,0.17c-0.09,0-0.17,0-0.26,0.09c0,0-0.09,0-0.17,0c-0.17,0-0.34,0.09-0.6,0.09c-0.43,0-0.78,0.09-1.21,0
			c-0.09,0-0.17,0-0.26,0l0,0l0,0c-0.17,0-0.26-0.09-0.43-0.09c-0.09,0-0.26-0.09-0.34-0.09l0,0c-0.17-0.09-0.34-0.17-0.52-0.26
			c-0.52-0.34-1.12-0.52-1.64-0.78c-1.38-0.52-2.93-0.78-4.39-0.86c-3.1-0.09-6.11,1.12-8.35,3.27c-1.46,1.46-2.58,3.19-3.1,5.17
			c-0.34,1.64-0.43,3.36-0.43,5c-1.03,0-2.24,0.09-3.36,0.09c0.17-2.67,0.34-5.17,1.21-7.75c0.26-0.69,0.43-1.03,0.78-1.72
			c0.17-0.34,0.34-0.6,0.52-0.86c0.09-0.17,0.17-0.26,0.26-0.34s0.09-0.17,0.17-0.26c0,0,0.09-0.09,0.09-0.17
			c0.43-0.52,0.86-0.95,1.29-1.38c0.09-0.09,0.26-0.17,0.34-0.34c0.09-0.09,0.17-0.09,0.17-0.17c-0.09,0-0.17,0.09,0,0
			c0.26-0.17,0.52-0.34,0.78-0.52c0.52-0.34,1.12-0.69,1.64-0.95c0.17-0.09,0.26-0.09,0.43-0.17l0.26-0.09
			c0.34-0.09,0.6-0.26,0.95-0.34c1.29-0.43,2.5-0.6,3.88-0.78c1.46-0.26,2.84-0.69,3.96-1.64c1.03-0.86,1.72-1.98,2.76-2.84
			c0.17-0.17,0.34-0.34,0.69-0.52c0.26-0.17,0.6-0.34,0.95-0.52c0.34-0.17,0.6-0.34,0.95-0.43c0.09,0,0.09-0.09,0.17-0.09l0,0
			c0,0,0,0,0.09,0c0.17-0.09,0.34-0.17,0.6-0.26c1.21-0.43,2.41-0.78,3.7-1.12l0.43-0.09c2.07-0.43,4.39-0.6,6.8-0.52
			c4.65,0.17,9.22,1.21,13.69,2.24c3.96,0.95,8.18,1.89,12.32,2.24c0.43,0,0.78,0.09,1.21,0.09c4.39,0,8.96-1.72,12.14-4.48
			c-0.6-0.52-1.21-1.03-1.89-1.55c-2.76,2.24-6.8,3.7-9.99,3.62v-8.27c0-0.34-0.17-0.6-0.43-0.78l-1.81-1.38v-4.56
			c0-0.52-0.43-0.95-0.95-0.95h-2.84c-0.52,0-0.95,0.43-0.95,0.95v1.03l-2.67-1.81c-0.34-0.26-0.78-0.26-1.12,0l-3.62,2.58v-2.5
			c0-0.34-0.17-0.6-0.43-0.78l-1.81-1.38v-4.56c0-0.52-0.43-0.95-0.95-0.95h-2.84c-0.52,0-0.95,0.43-0.95,0.95v1.03l-2.67-1.81
			c-0.34-0.26-0.78-0.26-1.12,0l-9.3,6.72c-0.17,0.17-0.34,0.34-0.34,0.6c-6.8,2.5-12.57,3.1-17.74,1.64
			c-6.37-1.81-11.97-5.68-16.97-9.65l-0.26-0.17c-4.56-3.62-8.87-6.98-13.95-9.39c-0.6,0.69-1.29,1.21-2.07,1.64l0,0
			c5.17,2.33,9.65,5.77,14.04,9.13c5.51,4.13,11.11,8.53,18,10.59c5.51,1.72,11.88,1.29,18.86-1.21v6.55l1.89-0.69v-7.84l8.35-6.03
			l3.62,2.5c0.26,0.17,0.69,0.26,1.03,0.09c0.34-0.17,0.52-0.52,0.52-0.86v-1.98h0.95v4.13c0,0.34,0.17,0.6,0.43,0.78l1.81,1.38
			v3.44l-3.7,2.67c-0.26,0.17-0.43,0.43-0.43,0.78v4.56c-4.48-0.78-9.3-1.21-13.95-0.26c-0.09,0-0.26,0-0.34,0
			c-1.55,0.43-3.19,0.86-4.74,1.46c-6.8,1.98-14.21,1.21-20.67-1.81c-6.8-3.1-12.4-8.27-18.43-12.57
			c-6.72-4.82-14.04-9.3-22.56-9.56c-5.86-0.17-11.71,0.17-17.57,0.26v2.33c5.43,0,10.94-0.26,16.36-0.26c3.19,0,6.29,0.43,9.3,1.55
			c4.74,1.89,9.3,4.91,13.44,7.84c4.82,3.44,9.3,7.41,14.38,10.42c-3.7-0.17-7.41-0.17-11.11,0.26c-5,0.6-9.82,1.89-14.3,4.31
			c-2.33,1.29-4.56,2.84-6.46,4.74l1.72,1.72c0.43-0.43,0.78-0.78,1.21-1.12c0.17-0.17,0.43-0.34,0.6-0.52
			c0.09-0.09,0.26-0.17,0.34-0.26c0,0,0.09,0,0.09-0.09c0.09,0,0.17-0.09,0.17-0.17c0.95-0.69,1.89-1.29,2.84-1.89
			c1.03-0.6,2.07-1.12,3.1-1.55c0.09-0.09,0.26-0.09,0.34-0.17l0.17-0.09c0.26-0.09,0.6-0.26,0.86-0.34
			c0.52-0.17,1.03-0.43,1.64-0.52c4.91-1.64,9.9-2.07,15.07-2.07c3.1,0,6.11,0.26,9.22,0.52c0.09,0,0.17,0,0.17,0
			c4.74,1.89,9.82,2.76,14.9,2.24c-0.34,0.34-0.6,0.69-0.95,1.03c-0.26,0.26-0.43,0.52-0.69,0.69c0,0-0.09,0-0.09,0.09
			c-0.09,0-0.09,0.09-0.17,0.09c-0.17,0.09-0.34,0.17-0.52,0.26c0,0-0.09,0.09-0.17,0.09s-0.17,0.09-0.17,0.09
			c-0.17,0.09-0.34,0.09-0.43,0.17c-0.34,0.09-0.69,0.17-1.03,0.26c-1.38,0.26-2.67,0.43-3.96,0.78c-1.29,0.43-2.58,0.95-3.79,1.64
			c-2.58,1.55-4.48,3.7-5.6,6.46c-1.29,3.01-1.55,6.29-1.72,9.47c-0.6,0-0.95,0.09-0.95,0.09c-0.95,0.09-1.89,0.17-2.84,0.34
			c0,0,0.95,3.19,0.95,3.36c0.17,0.95,0.34,1.98,0.26,2.93c-0.09,1.98-0.6,3.88-1.55,5.77c-0.52,1.03-1.21,2.07-1.98,3.01
			c-0.43,0.52-0.86,1.03-1.38,1.55c-0.17,0-0.34,0-0.43,0c-0.26,0-0.52,0-0.78,0c-0.69,0-1.46,0.09-2.15,0.09
			c-0.43,0-0.95,0.09-1.38,0.09c-0.52,0.09-1.03,0.09-1.55,0.17v-5.17h2.84c0.43,0,1.81-0.17,2.41-0.6
			c0.34-0.26,0.86-0.78,0.86-0.78c1.21-1.12,1.81-2.58,1.81-4.13c0-0.52-0.43-0.95-0.95-0.95h-3.27c-1.29,0-2.58,0.43-3.62,1.29
			v-1.98c0.86,0.26,1.81,0.17,2.67-0.26c0.86-0.43,1.46-1.21,1.72-2.07c1.21,0.26,2.41-0.09,3.27-0.95
			c0.86-0.86,1.21-2.07,0.95-3.27c1.12-0.34,1.98-1.29,2.33-2.41c0.34-1.21,0-2.41-0.78-3.27c0.86-0.86,1.12-2.07,0.78-3.27
			c-0.34-1.21-1.21-2.07-2.33-2.41c0.26-1.21-0.09-2.41-0.95-3.27c-0.86-0.86-2.07-1.21-3.27-0.95c-0.34-1.12-1.29-1.98-2.41-2.33
			c-1.21-0.34-2.41,0-3.27,0.78c-0.86-0.78-2.07-1.12-3.27-0.78c-1.21,0.34-2.07,1.21-2.41,2.33c-1.21-0.26-2.41,0.09-3.27,0.95
			s-1.21,2.07-0.95,3.27c-1.12,0.34-1.98,1.29-2.33,2.41c-0.34,1.21,0,2.41,0.78,3.27c-0.86,0.86-1.12,2.07-0.78,3.27
			c0.34,1.21,1.21,2.07,2.33,2.41c-0.26,1.21,0.09,2.41,0.95,3.27s2.07,1.21,3.27,0.95c0.26,0.95,0.95,1.72,1.81,2.15
			c0.86,0.43,1.89,0.43,2.76,0.09v2.15c-1.03-0.86-2.33-1.38-3.7-1.38h-3.27c-0.52,0-0.95,0.43-0.95,0.95c0,1.55,0.6,3.1,1.72,4.13
			c0,0.09,0.86,1.12,2.24,1.38c0.86,0.17,3.1,0.09,3.96,0.09v5.51c-4.91,0.86-9.56,2.5-13.69,4.74c0-0.17,0-0.34,0-0.34v-0.09
			c0-0.09,0-0.43,0-0.86c0.43-0.17,0.95-0.34,1.46-0.52c1.29-0.52,2.58-1.12,3.1-1.29c0.6-0.17,1.21-0.6,1.55-1.21v-0.09
			c0.26-0.6,0.34-1.21,0.26-1.89v-0.09c0-0.09-0.09-0.26-0.09-0.6v-0.09c0-0.09-0.09-0.26-0.09-0.34c-0.09-0.34-0.17-0.69-0.26-1.03
			c-0.09-0.43-0.26-0.78-0.34-1.03c0-0.09-0.09-0.26-0.09-0.34l-0.17-0.69v-0.09c-0.17-0.52-0.52-0.95-0.86-1.29
			c-0.09-0.09-0.26-0.17-0.34-0.26h-0.09c-0.09-0.09-0.17-0.09-0.26-0.17c0,0,0,0-0.09,0c-0.52-0.26-1.12-0.26-1.64-0.17
			c-0.52,0.09-1.89,0.17-3.27,0.43c-0.52,0.09-1.03,0.17-1.55,0.26c-0.09-0.17-0.17-0.34-0.26-0.43c-0.09-0.17-0.17-0.26-0.17-0.34
			c0-0.09-0.09-0.09-0.09-0.09l-0.09-0.09c-0.09-0.09-0.26-0.34-0.52-0.69c0.26-0.43,0.6-0.86,0.86-1.29
			c0.78-1.21,1.46-2.41,1.72-2.84c0.43-0.52,0.6-1.21,0.52-1.89v-0.09c-0.09-0.6-0.43-1.21-0.86-1.72l-0.09-0.09
			c0,0-0.17-0.17-0.43-0.43l-0.09-0.09c-0.09-0.09-0.17-0.17-0.26-0.26c-0.26-0.26-0.52-0.52-0.86-0.78L500.15,73l-0.09-0.09
			c-0.69-0.43-1.46-0.6-2.24-0.43c-0.6,0.09-1.03,0.43-1.38,0.86c-0.34,0.34-1.46,1.29-2.41,2.33c-0.34,0.34-0.69,0.78-1.03,1.12
			c-0.17-0.09-0.34-0.17-0.52-0.17c-0.26-0.09-0.34-0.17-0.43-0.17l-0.52-0.17c-0.09,0-0.17-0.09-0.26-0.09l-0.17-0.09
			c0-0.43,0-1.03-0.09-1.55c0-0.78-0.09-1.55-0.17-2.41l-0.09-0.86c0-0.52-0.17-1.03-0.43-1.55c-0.43-0.6-1.21-1.03-1.98-1.21
			c-0.17,0-0.43-0.09-0.78-0.09h-0.17c-0.34,0-0.78-0.09-1.21-0.09c-0.6-0.09-1.12-0.09-1.55,0h-0.6c-0.86,0-1.64,0.34-2.15,0.95
			c-0.43,0.43-0.6,0.95-0.6,1.46c-0.09,0.17-0.09,0.52-0.17,0.95c-0.17,0.69-0.26,1.55-0.43,2.41c-0.09,0.52-0.17,1.12-0.17,1.55
			h-0.09c-0.09,0-0.17,0.09-0.26,0.09l-0.52,0.09c-0.17,0-0.43,0.09-0.69,0.17c-0.09,0-0.26,0.09-0.34,0.09
			c-0.26-0.34-0.6-0.78-0.95-1.21c-0.86-1.12-1.81-2.15-2.15-2.5c-0.34-0.43-0.78-0.78-1.38-0.95c-0.78-0.26-1.64-0.09-2.33,0.34
			l-1.72,1.03l-1.72,1.29c-0.26,0.17-0.43,0.34-0.6,0.52v3.88c-0.52,0.69-0.09,1.55,0.34,2.41c0.26,0.43,0.52,0.95,0.78,1.38
			c-0.09,0.09-0.17,0.17-0.26,0.26c-0.17,0.17-0.34,0.34-0.43,0.52l0,0l-0.34,0.43c-0.09,0.09-0.09,0.17-0.17,0.26l0,0
			c0,0,0,0.09-0.09,0.09c-0.17-0.09-0.43-0.09-0.6-0.17v3.53c0.34,0.09,0.6,0.17,0.69,0.26l1.29,0.43l0.86-1.38
			c0.17-0.26,0.34-0.43,0.43-0.6c0.09-0.09,0.17-0.26,0.26-0.34l0.26-0.43c0,0,0-0.09,0.09-0.09c0,0,0.09-0.09,0.17-0.17l0,0
			c0.26-0.26,0.52-0.6,0.86-0.95l1.12-1.12l-0.6-1.03l-0.17-0.26c0-0.09-0.09-0.17-0.17-0.26c-0.34-0.6-0.78-1.29-1.03-1.89
			c-0.52-1.03-1.03-2.07-1.29-2.58l1.21-0.86l1.29-0.78c0.43,0.43,1.21,1.29,1.89,2.24c0.6,0.78,1.12,1.38,1.38,1.72l0.09,0.09
			c0.09,0.09,0.17,0.17,0.17,0.26l0.78,1.03l1.21-0.43c0.09,0,0.09-0.09,0.17-0.09h0.09c0.52-0.17,0.95-0.34,1.29-0.43l0,0
			c0.09-0.09,0.17-0.09,0.26-0.09l0.6-0.26c0.09,0,0.26-0.09,0.34-0.09h0.09c0.26-0.09,0.52-0.09,0.78-0.17l1.64-0.17l0.09-1.38
			c0-0.26,0.09-1.38,0.26-2.58c0.09-0.78,0.26-1.55,0.43-2.24c0.09-0.26,0.09-0.52,0.17-0.6h0.34c0.34,0,0.78,0,1.21,0.09
			c0.43,0,0.86,0.09,1.21,0.09h0.17c0.09,0,0.17,0,0.17,0l0.09,0.69c0.09,0.78,0.17,1.55,0.17,2.24c0.09,1.03,0.09,2.07,0.09,2.67
			v1.29l1.72,0.43c0.17,0,0.26,0.09,0.43,0.09l0.26,0.09c0.09,0,0.17,0.09,0.26,0.09l0.43,0.17c0.09,0,0.26,0.09,0.52,0.17
			c0.17,0.09,0.34,0.17,0.6,0.26c0.17,0.09,0.34,0.17,0.52,0.26c0.09,0,0.17,0.09,0.17,0.09l1.21,0.6l0.95-1.12
			c0.09-0.09,0.17-0.17,0.26-0.26c0.43-0.52,0.95-1.12,1.46-1.55c0.78-0.86,1.72-1.64,2.07-1.98l1.29,0.95
			c0.17,0.17,0.43,0.34,0.6,0.52c0.09,0.09,0.26,0.17,0.34,0.26c0.09,0.09,0.09,0.09,0.17,0.17c-0.34,0.52-0.86,1.55-1.46,2.5
			c-0.52,0.86-1.12,1.64-1.46,2.15l-0.78,1.03l0.86,1.03c0.09,0.09,0.09,0.09,0.17,0.17l0,0c0.43,0.6,0.78,1.03,0.95,1.29l0,0l0,0
			l0,0l0,0c0,0,0,0,0,0.09c0.09,0.17,0.43,0.69,0.78,1.29c0,0.09,0.09,0.09,0.09,0.17c0,0,0,0.09,0.09,0.09c0,0,0,0.09,0.09,0.09
			l0.6,1.21l1.29-0.34c0.52-0.09,1.55-0.34,2.58-0.52c1.12-0.17,2.33-0.34,2.84-0.43c0,0.09,0.09,0.17,0.09,0.17l0.43,1.29
			c0.09,0.43,0.26,0.95,0.26,1.29c0,0.09,0,0.17,0.09,0.26c-0.6,0.26-1.64,0.69-2.67,1.12c-0.95,0.34-1.81,0.69-2.5,0.86l-1.29,0.43
			l0.09,1.29c0,0.09,0,0.17,0,0.17l0,0c0,0.69,0,1.29,0,1.64c0,0-0.09,0.69-0.17,1.81l0,0c0,0.09,0,0.17-0.09,0.17l-0.17,0.78
			c-0.86,0.6-1.72,1.29-2.58,1.98c0,0-2.33,1.46-5,2.5c-7.06-1.29-16.36-1.21-24.03,1.29l0.17-0.09c-0.17-0.26-0.43-0.69-0.69-1.21
			l0,0c0-0.09-0.09-0.17-0.09-0.26l-0.6-1.12l-1.29,0.26v6.55C475.52,104.95,488.26,105.38,495.84,107.28 M585.24,76.62l0.09,11.8
			c-1.72-0.52-3.53-0.86-5.25-1.12V76.71L585.24,76.62z M570.6,86.61c-1.03,0-1.98,0-3.01,0v-3.88c0-1.21,0.95-2.24,2.24-2.24
			c1.21,0,2.24,0.95,2.24,2.24v3.88C571.55,86.61,571.11,86.61,570.6,86.61 M576.2,61.89v1.38h-5.25v-1.38H576.2z M569.74,69.21
			l7.84,5l0.09,12.75c-0.69-0.09-1.46-0.17-2.15-0.17c-0.69-0.09-1.29-0.09-1.98-0.09v-3.88c0-2.07-1.72-3.7-3.7-3.7
			c-2.07,0-3.7,1.64-3.7,3.7v3.96c-0.17,0-0.26,0-0.43,0c-1.29,0.09-2.5,0.26-3.7,0.43l0-12.92L569.74,69.21z M559.49,76.79
			l0.09,10.77c-0.17,0-0.26,0.09-0.43,0.09c-1.81,0.34-3.36,0.78-4.82,1.29l-0.09-12.06L559.49,76.79z M579.81,45.01l8.35-6.03
			l3.62,2.5c0.26,0.17,0.69,0.26,1.03,0.09c0.34-0.17,0.52-0.52,0.52-0.86v-1.98h0.95v4.13c0,0.34,0.17,0.6,0.43,0.78l1.81,1.29
			v7.58c-3.96-0.43-7.84-1.29-11.45-2.07c-1.64-0.34-3.36-0.78-5.17-1.12v-4.31H579.81z M516.08,107.71
			c-0.95-0.69-1.89-1.29-2.93-1.98c0.52-0.52,1.21-0.95,1.89-1.46c5.86-3.88,17.05-7.58,24.98-8.53c0.26,0.09,0.6,0.17,0.86,0.17
			c1.21,0.26,2.41,0.6,3.62,1.03c0.09,0,0.17,0.09,0.26,0.09c-8.7,0.78-20.33,4.82-26.27,8.78c-0.69,0.43-1.29,0.86-1.81,1.29
			C516.69,107.28,516.43,107.45,516.08,107.71 M550.27,99.44c1.29,0.69,2.58,1.38,3.7,2.24c-8.78-0.43-23.25,3.53-30.23,7.66
			c-0.69,0.43-1.29,0.86-1.89,1.29c0,0-0.69,0.52-1.12,0.86c-0.78-0.69-1.64-1.38-2.5-2.07c0.09-0.09,0.17-0.09,0.17-0.09
			c0.6-0.52,1.29-0.95,2.07-1.46C527.02,103.83,542.01,99.1,550.27,99.44 M532.36,90.23c0.6-0.95,1.12-1.89,1.55-2.93
			c0.78-1.89,1.21-3.88,1.29-5.86c0-1.29-0.09-2.5-0.34-3.7c2.15-0.17,4.31-0.26,6.46-0.17c0.52,0,0.95,0,1.46,0.09
			c-0.34,1.21-0.52,2.5-0.52,3.7c0,1.64,0.17,3.19,0.6,4.74c0.26,0.95,0.69,1.89,1.12,2.84c0.09,0.17,0.17,0.34,0.26,0.52
			c0.52,1.03,1.21,1.98,1.89,2.93c-0.69,0.34-1.29,0.78-1.89,1.12c-0.09,0.09-0.09,0.09-0.17,0.09c-0.34-0.09-0.78-0.26-1.12-0.34
			c-1.89-0.52-3.79-0.86-5.68-1.21c-1.21-0.17-2.41-0.34-3.7-0.43c-0.78-0.09-1.46-0.09-2.24-0.09
			C531.76,91.26,532.1,90.74,532.36,90.23 M524.52,82.3h2.15c-0.43,1.72-1.98,2.93-3.79,2.93h-1.98v-0.52
			C521.51,83.25,522.97,82.3,524.52,82.3 M523.14,76.79c-0.17,0.34-0.43,0.6-0.78,0.69h-0.09c-0.34,0.09-0.78,0-1.12-0.26
			c-0.34-0.26-0.52-0.6-0.52-0.95v-2.07c0.43-0.09,0.86-0.17,1.29-0.34l1.03,1.81C523.32,76.02,523.32,76.45,523.14,76.79
			 M527.02,74.81L527.02,74.81c-0.34,0.34-0.69,0.43-1.03,0.43c-0.43-0.09-0.69-0.26-0.95-0.6l-1.03-1.81
			c0.34-0.26,0.69-0.6,0.95-0.95l1.81,1.03c0.34,0.17,0.52,0.52,0.6,0.95C527.45,74.12,527.28,74.47,527.02,74.81 M529.69,70.07
			L529.69,70.07c-0.09,0.43-0.34,0.69-0.69,0.86s-0.78,0.09-1.12-0.09l-1.81-1.03c0.17-0.43,0.26-0.86,0.34-1.29h2.07
			c0.43,0,0.78,0.17,0.95,0.52C529.78,69.3,529.86,69.73,529.69,70.07 M527.88,63.96L527.88,63.96c0.34-0.26,0.78-0.26,1.12-0.09
			c0.34,0.17,0.6,0.43,0.69,0.78v0.09c0.09,0.34,0,0.78-0.26,1.12c-0.26,0.34-0.6,0.52-0.95,0.52h-2.07
			c-0.09-0.43-0.17-0.86-0.34-1.29L527.88,63.96L527.88,63.96z M525.04,60.26c0.17-0.34,0.52-0.52,0.95-0.6
			c0.34-0.09,0.78,0.09,1.03,0.34v0.09c0.26,0.26,0.43,0.69,0.34,1.03c-0.09,0.43-0.26,0.69-0.6,0.95l-1.81,1.03
			c-0.26-0.34-0.6-0.69-0.95-0.95L525.04,60.26z M520.73,58.53c0-0.43,0.17-0.78,0.52-0.95c0.34-0.26,0.69-0.34,1.12-0.26h0.09
			c0.34,0.09,0.69,0.34,0.78,0.69c0.17,0.34,0.09,0.78-0.09,1.12l-1.03,1.81c-0.43-0.17-0.86-0.26-1.29-0.34L520.73,58.53
			L520.73,58.53z M516.08,58.1c0.17-0.34,0.43-0.6,0.78-0.69h0.09c0.34-0.09,0.78,0,1.12,0.26c0.34,0.26,0.52,0.6,0.52,0.95v2.07
			c-0.43,0.09-0.86,0.17-1.29,0.34l-1.03-1.81C516,58.79,515.91,58.45,516.08,58.1 M512.21,60.08L512.21,60.08
			c0.34-0.34,0.69-0.43,1.03-0.43c0.43,0.09,0.69,0.26,0.95,0.6l1.03,1.81c-0.34,0.26-0.69,0.6-0.95,0.95l-1.81-1.03
			c-0.34-0.17-0.6-0.52-0.6-0.95C511.86,60.69,511.95,60.34,512.21,60.08 M509.54,64.73L509.54,64.73c0.09-0.43,0.34-0.69,0.69-0.86
			c0.34-0.17,0.78-0.09,1.12,0.09l1.81,1.03c-0.17,0.43-0.26,0.86-0.34,1.29h-2.07c-0.43,0-0.78-0.17-0.95-0.52
			C509.54,65.51,509.45,65.08,509.54,64.73 M511.35,70.94c-0.34,0.17-0.78,0.26-1.12,0.09c-0.34-0.17-0.6-0.43-0.69-0.78v-0.09
			c-0.09-0.34,0-0.78,0.26-1.12c0.26-0.34,0.6-0.52,0.95-0.52h2.07c0.09,0.43,0.17,0.86,0.34,1.29L511.35,70.94L511.35,70.94z
			 M514.19,74.55c-0.17,0.34-0.52,0.52-0.95,0.6s-0.78-0.09-1.03-0.34l0,0c-0.26-0.26-0.43-0.69-0.34-1.03
			c0.09-0.43,0.26-0.69,0.6-0.95l1.81-1.03c0.26,0.34,0.6,0.69,0.95,0.95L514.19,74.55z M514.96,67.4c0-2.58,2.07-4.65,4.65-4.65
			s4.65,2.07,4.65,4.65s-2.07,4.65-4.65,4.65C517.03,72.06,514.96,69.99,514.96,67.4 M518.06,77.31c-0.34,0.26-0.69,0.34-1.12,0.26
			h-0.09c-0.34-0.09-0.69-0.34-0.78-0.69c-0.17-0.34-0.09-0.78,0.09-1.12l1.03-1.81c0.43,0.17,0.86,0.26,1.29,0.34v2.07
			C518.49,76.71,518.32,77.05,518.06,77.31 M516.43,85.23c-1.81,0-3.36-1.21-3.79-2.93h2.15c1.72,0,3.19,1.12,3.7,2.67v0.26H516.43
			L516.43,85.23z M507.47,99.27c3.96-1.98,8.53-3.36,13.26-4.05c1.12-0.17,2.24-0.26,3.36-0.34c0.09,0,0.17,0,0.34,0
			c1.03-0.09,3.01-0.09,4.22-0.09c0.6,0,1.03,0,1.03,0c0.52,0,1.03,0,1.64,0c-6.98,1.81-14.21,4.82-18.43,7.84
			c-0.69,0.52-1.29,1.03-1.81,1.46c-0.09,0.09-0.17,0.17-0.26,0.26c-2.24-1.21-4.48-2.33-6.72-3.1
			C505.14,100.48,506.26,99.87,507.47,99.27"/>
		<path class="st1" d="M492.66,212.44l-1.29,1.64c-1.29-0.34-2.67-1.21-3.7-1.81l1.89-2.5l1.21-1.55c-0.26-0.17-1.29-1.03-1.55-1.21
			c-3.96-3.19-11.88-7.75-17.74-8.53c0,0,0,0-0.09,0c-0.78-0.09-3.62-0.34-4.31-0.43l-0.09,3.27l-0.09,1.21v2.07l0.09-0.17
			c0.86,0.09,1.81,0.26,2.67,0.43c6.03,1.21,11.63,4.05,15.07,7.84c0.17,0.17,0.69,0.6,0.69,0.6c1.29,1.21,3.36,2.15,5.51,2.67
			c-0.6,2.41-1.21,3.36-2.41,4.48c-0.43-0.52-0.86-0.95-1.38-1.38c-1.55-1.03-3.36-1.38-4.91-1.12c0,0-2.76-0.09-4.31-0.69
			c-1.64-0.69-3.44-2.07-4.65-3.62c-0.78-0.95-1.38-2.07-2.33-2.84c-1.21-0.95-2.58-1.38-3.96-1.46v1.81
			c0.86,0.09,1.72,0.26,2.67,0.86c0.6,0.34,2.24,2.67,2.93,3.7c0.09,0.09,2.5,2.33,3.88,2.84c1.64,0.69,5.17,1.38,6.03,1.21l0,0l0,0
			c0.09,0,0.17,0,0.26,0l0,0c1.03-0.09,2.07,0.09,3.19,0.6c0.26,0.17,0.69,0.6,1.21,1.21c0,0-0.09,0-0.09,0.09l1.03,1.64
			c0.09-0.09,0.17-0.09,0.34-0.17l0,0l0.09,0.09c0.09-0.09,0.17-0.17,0.26-0.26c0.43-0.26,0.78-0.52,1.21-0.78
			c-0.09-0.09-0.09-0.09-0.17-0.17c1.55-1.64,2.67-3.53,3.1-5.6l0.09-0.6c0.09-0.26,0.17-1.29,0.17-1.29
			c-0.34,0-0.69-0.09-1.03-0.09l0.95-1.29l0.78-1.03l0.95-1.12l-4.65-0.86L492.66,212.44z M470.35,202.96
			c-0.69-0.17-1.38-0.26-2.07-0.34l1.98-2.5c0.34,0,0.69,0.09,1.03,0.09c0.78,0.09,1.64,0.34,2.58,0.6l-1.98,2.5
			C471.3,203.22,470.87,203.13,470.35,202.96 M473.45,203.82l1.98-2.5c1.38,0.52,2.84,1.12,4.22,1.81l-1.89,2.33
			C476.38,204.86,474.92,204.25,473.45,203.82 M479.31,206.23l1.81-2.33c0.95,0.52,1.89,1.03,2.84,1.64l-1.89,2.33
			C481.2,207.27,480.26,206.75,479.31,206.23 M483.36,208.73l1.89-2.41c1.03,0.69,2.07,1.46,2.84,2.07l-2.07,2.67
			C485.25,210.28,484.39,209.51,483.36,208.73"/>
		<path class="st1" d="M486.71,184.62c4.48,0.6,8.1,3.1,9.99,4.74l1.38-2.5c-2.07-1.81-4.74-4.13-9.99-4.82L486.71,184.62z"/>
		<path class="st1" d="M481.37,194.26c4.48,0.6,8.18,3.27,10.08,4.91l1.29-2.58c-2.07-1.81-4.74-4.31-9.9-5L481.37,194.26z"/>
		<path class="st1" d="M484.13,189.27c4.48,0.6,8.18,3.27,9.99,4.91l1.38-2.5c-2.07-1.81-4.82-4.13-9.99-4.82L484.13,189.27z"/>
		<path class="st1" d="M479.82,183.76c-1.21-1.03-3.44-2.41-6.2-3.53l0.09-0.09c0.26-0.26,1.03-1.38,0.69-1.64
			c-0.34-0.26-1.03,0.09-1.55,0.43c-0.09-0.52-0.26-1.12-0.6-1.21c-0.43-0.17-0.78,1.12-0.86,1.55c0,0.09,0,0.09,0,0.17
			c-1.38-0.43-2.84-0.86-4.31-1.03l-0.09,1.55v1.38c4.48,0.6,9.65,3.36,11.45,4.91L479.82,183.76z"/>
		<path class="st1" d="M467.08,187.2h0.34c3.53,1.03,6.72,3.1,8.18,4.39l1.29-2.5c-1.72-1.46-5.68-3.7-9.73-4.82
			C466.99,184.96,467.08,186.86,467.08,187.2"/>
		<path class="st1" d="M483.01,178.07c-0.17-0.09-0.26-0.17-0.43-0.26c-0.52-0.26-1.03-0.6-1.55-0.86c0.26,0,0.52-0.17,0.78-0.43
			c0.26-0.26,1.03-1.38,0.69-1.55c-0.34-0.26-1.03,0.09-1.55,0.43c-0.09-0.52-0.26-1.12-0.6-1.21c-0.43-0.17-0.78,1.12-0.86,1.55
			c0,0.17,0,0.34,0,0.52c-2.58-1.12-5.43-2.07-8.35-2.67c0.17-0.17,0.34-0.43,0.43-0.69c0.17-0.34,0.34-1.64-0.09-1.72
			c-0.43-0.09-1.03,0.6-1.29,1.21c-0.26-0.52-0.86-1.29-1.29-1.21s-0.26,1.38-0.09,1.72c0,0.09,0.09,0.17,0.09,0.17
			c-0.6-0.09-1.21-0.17-1.89-0.26v2.84c5.34,0.86,10.33,2.76,14.55,5.17L483.01,178.07z"/>
		<path class="st1" d="M486.71,223.37c-0.43-0.6-0.95-1.12-1.55-1.55c-1.55-1.03-3.36-1.38-4.91-1.12c0,0-2.76-0.09-4.31-0.69
			c-1.64-0.69-3.44-2.15-4.65-3.62c-0.78-0.95-1.38-2.07-2.33-2.84c-0.6-0.43-1.21-0.78-1.81-1.03v1.98
			c0.17,0.09,0.34,0.17,0.52,0.26c0.6,0.34,2.24,2.67,2.93,3.7c0.09,0.09,2.5,2.33,3.88,2.84c1.72,0.78,5.17,1.38,6.03,1.21l0,0l0,0
			c0.09,0,0.17,0,0.26,0l0,0c1.03-0.09,2.07,0.09,3.19,0.6c0.26,0.17,0.69,0.6,1.21,1.21c0,0-0.09,0-0.09,0.09l1.03,1.64
			c0.09-0.09,0.17-0.09,0.34-0.17c0.52-0.34,1.03-0.6,1.55-1.03c-0.09-0.09-0.17-0.17-0.26-0.26
			C487.32,224.15,486.97,223.72,486.71,223.37"/>
		<path class="st1" d="M503.85,146.55c0-0.69-0.6-1.29-1.29-1.29s-1.29,0.6-1.29,1.29s0.6,1.29,1.29,1.29
			S503.85,147.24,503.85,146.55"/>
		<path class="st1" d="M498.69,146.12c0.69,0,1.29-0.6,1.29-1.29s-0.6-1.29-1.29-1.29c-0.69,0-1.29,0.6-1.29,1.29
			C497.39,145.6,498,146.12,498.69,146.12"/>
		
			<rect x="517.12" y="142.33" transform="matrix(0.4784 -0.8782 0.8782 0.4784 145.8761 532.1415)" class="st1" width="7.49" height="1.89"/>
		
			<rect x="521.24" y="144.57" transform="matrix(0.4784 -0.8782 0.8782 0.4784 146.0603 536.9298)" class="st1" width="7.49" height="1.89"/>
		
			<rect x="525.37" y="146.8" transform="matrix(0.4782 -0.8783 0.8783 0.4782 146.3445 541.7958)" class="st1" width="7.49" height="1.89"/>
		<path class="st1" d="M548.81,163.86c-0.95-0.34-2.07-0.43-3.1-0.26c-1.89,0.26-3.62,0.86-5.43,1.38
			c-1.21,0.34-2.41,0.69-3.62,1.03c-1.29,0.34-2.15,0.52-3.44,0.52c-0.26,0-0.6,0-0.86-0.09c-0.17,0-0.26,0-0.43,0
			c-0.09,0-0.09,0-0.17,0h-0.09c-0.6-0.09-1.12-0.26-1.72-0.34c-1.21-0.34-2.07-0.69-3.1-1.29c-1.03-0.52-1.98-1.21-3.01-1.89
			c-0.95-0.69-1.98-1.38-3.01-1.89c-1.21-0.52-2.5-0.86-3.79-0.95c-1.29-0.09-2.58,0.17-3.88,0.52c-1.03,0.26-2.07,0.6-3.1,0.78
			c-0.43,0.09-0.86,0.17-1.29,0.26c-0.17,0.09-0.43,0.09-0.6,0.09c-0.09,0-0.17,0-0.26,0.09l0,0c-0.09,0-0.09,0-0.09,0
			c-0.78,0.09-1.64,0.17-2.41,0.09c-0.43,0-0.86-0.09-1.21-0.09l0,0l0,0c-0.09,0-0.17,0-0.26-0.09c-0.26,0-0.43-0.09-0.69-0.17
			c-0.95-0.17-1.81-0.52-2.67-0.86l-0.17-0.09c-0.09-0.09-0.26-0.09-0.34-0.17c-0.26-0.09-0.52-0.26-0.78-0.34
			c-0.52-0.26-1.03-0.52-1.46-0.78c-0.34-0.17-0.69-0.43-1.03-0.6l0,0l0,0c-0.17-0.09-0.34-0.26-0.6-0.34
			c-4.13-3.44-8.96-5.94-14.12-7.58c-4.05-1.29-8.27-2.07-12.57-2.33c-0.86-0.09-1.64-0.09-2.5-0.09v2.41c0.6,0,1.21,0,1.81,0.09
			c0.86,0.09,1.64,0.09,2.5,0.17c0.43,0.09,0.95,0.09,1.38,0.17c0.09,0,0.17,0,0.34,0.09c-0.34-0.09,0.09,0,0.17,0
			c0.26,0,0.52,0.09,0.78,0.09c2.15,0.34,4.31,0.78,6.37,1.46c1.12,0.34,2.33,0.69,3.44,1.12c0.26,0.09,0.6,0.26,0.86,0.34
			c0.09,0.09,0.26,0.09,0.34,0.17h0.09c0.09,0.09,0.26,0.09,0.34,0.17c0.6,0.26,1.12,0.52,1.72,0.78c1.29,0.69,2.58,1.38,3.88,2.15
			c1.38,0.86,2.58,1.72,3.7,2.67c0,0,0,0,0.09,0c0,0,0,0,0.09,0c-0.95,0.78-1.89,1.64-2.67,2.58c-1.03-0.6-2.07-1.12-3.19-1.55
			c0.34,0.09,0.69-0.09,0.95-0.34c0.26-0.26,1.03-1.38,0.69-1.55c-0.34-0.26-1.03,0.09-1.55,0.43c-0.09-0.52-0.26-1.03-0.6-1.21
			c-0.43-0.17-0.78,1.12-0.86,1.55c0,0.26,0,0.52,0,0.69c-2.76-1.12-5.68-2.07-8.7-2.76c0.17-0.09,0.26-0.26,0.34-0.43
			c0.26-0.34,0.78-1.55,0.43-1.72s-1.03,0.26-1.46,0.69c-0.17-0.52-0.43-1.03-0.78-1.12c-0.43-0.09-0.6,1.29-0.6,1.64
			c0,0.17,0,0.34,0.09,0.43c-1.89-0.34-3.88-0.6-5.86-0.78c0.09-0.09,0.17-0.26,0.17-0.43c0.09-0.34,0.34-1.64-0.09-1.72
			c-0.43-0.09-1.03,0.6-1.29,1.21c-0.26-0.52-0.86-1.29-1.29-1.21c-0.43,0.09-0.26,1.38-0.09,1.72c0,0.09,0.09,0.17,0.09,0.26
			c-0.09,0-0.17,0-0.26,0c-0.34,0-0.95,0-1.21,0l-0.09,3.44h0.34c0.26,0,0.6,0,0.86,0c7.92,0.26,15.42,2.24,21.62,5.51
			c-0.69,1.03-1.38,2.07-1.89,3.1c-1.12-0.6-2.24-1.03-3.36-1.55c0.09-0.09,0.17-0.17,0.34-0.26c0.26-0.26,1.03-1.38,0.69-1.55
			c-0.34-0.26-1.03,0.09-1.55,0.43c-0.09-0.52-0.26-1.12-0.6-1.21c-0.43-0.17-0.78,1.12-0.86,1.55c0,0.09,0,0.26,0,0.34
			c-1.81-0.69-3.7-1.21-5.68-1.64l0.09-0.09c0.26-0.34,0.78-1.55,0.43-1.72s-1.03,0.26-1.46,0.69c-0.17-0.52-0.43-1.03-0.78-1.12
			c-0.43-0.09-0.6,1.29-0.6,1.64c0,0.09,0,0.09,0,0.09c-1.29-0.17-2.58-0.34-3.88-0.43c0.09-0.09,0.09-0.26,0.17-0.34
			c0.17-0.34,0.34-1.64-0.09-1.72c-0.43-0.09-1.03,0.6-1.29,1.21c-0.26-0.52-0.86-1.29-1.29-1.21c-0.43,0.09-0.26,1.38-0.09,1.72
			c0,0.09,0.09,0.17,0.09,0.26c-0.26,0-0.78,0-1.03,0l-0.09,3.01c0.26,0,0.78,0,1.03,0c11.45,0.34,21.88,5,27.82,11.97
			c-3.44-1.55-7.84-3.01-8.01-3.1l-1.12-0.34l-11.11,19.55c-1.89-1.55-4.65-3.1-8.61-3.88c-0.09,0-0.09,0.09-0.17,0.26v1.46
			c0,0.34,0.09,0.6,0.09,0.78c3.36,0.78,5.86,2.07,7.92,4.22l0,0l0,0l0,0l0,0l1.38,0.52c0.09,0,5.94,2.33,7.75,3.27
			c1.72,0.95,6.63,4.39,6.72,4.39l1.29,0.86l11.88-22.31l-0.78-0.69c-0.09-0.09-0.09-0.09-0.95-0.78l-0.26-0.69
			c-1.55-3.1-3.7-5.94-6.55-8.53c1.21-1.81,2.58-3.53,4.31-5.08v-3.7c-2.76,2.15-4.82,4.31-6.72,6.89
			c-0.69-0.52-1.46-1.03-2.24-1.55c0.09-0.09,0.17-0.26,0.26-0.43c0.26-0.52,1.21-2.33,1.55-2.76c0.69-0.95,1.46-1.81,2.24-2.67
			c0.86-0.86,1.81-1.72,2.76-2.5c2.76,1.46,5.68,2.41,8.87,2.33c1.72-0.09,3.53-0.43,5.25-0.78c1.21-0.26,2.33-0.69,3.53-0.95
			c0.17,0,0.26-0.09,0.43-0.09h0.09c0.09,0,0.17,0,0.17,0c0.26,0,0.6-0.09,0.86-0.09c0.69,0,1.03,0,1.64,0.17
			c2.33,0.52,4.05,2.15,6.11,3.44c2.07,1.29,4.31,2.24,6.72,2.67c1.21,0.17,2.5,0.26,3.7,0.17c1.29-0.17,2.58-0.43,3.79-0.86
			c1.03-0.34,2.15-0.6,3.19-0.95c0.86-0.26,1.72-0.52,2.58-0.78c0.43-0.09,0.95-0.17,1.38-0.26l0,0l0,0c0.09,0,0.09,0,0.17,0
			s0.26,0,0.34,0c0.26,0,0.52,0,0.78,0c0.17,0,0.26,0,0.34,0l0,0h0.09c0.26,0.09,0.52,0.09,0.69,0.17c0,0,0.09,0,0.09,0.09l0,0
			c0.09,0.09,0.17,0.09,0.26,0.17c0.17,0.09,0.34,0.17,0.43,0.26c0.17,0.09,0.26,0.17,0.34,0.26c1.38-0.09,2.76-0.09,4.13-0.26
			c-0.78-0.52-1.55-1.03-2.41-1.55C550.36,164.72,549.67,164.21,548.81,163.86 M488.44,161.19
			C488.52,161.19,488.52,161.19,488.44,161.19c0.17,0,0.17,0.09,0.26,0.09C488.61,161.28,488.52,161.28,488.44,161.19 M498,182.12
			c1.38,0.95,2.76,1.98,3.53,2.58l-9.9,19.03c-1.64-1.12-5.25-3.44-6.55-4.13c-1.38-0.69-5.68-2.41-7.58-3.19l10.51-18.69
			c1.55,0.52,4.74,1.72,7.15,2.76C495.93,180.74,496.96,181.43,498,182.12"/>
		<path class="st1" d="M567.5,160.93c-0.86,0.17-1.64,0.43-2.5,0.69c-0.6,0.17-1.12,0.34-1.72,0.43l0,0c-0.09,0-0.17,0-0.17,0
			c-0.17,0-0.26,0-0.43,0c-0.34,0-0.6,0-0.95-0.09c0.17,0-0.26,0-0.34-0.09c-0.17,0-0.34-0.09-0.6-0.09
			c-0.52-0.09-0.95-0.26-1.46-0.34c-0.78-0.17-1.55-0.43-2.33-0.78c-0.43-0.17-0.78-0.26-1.12-0.43c-0.09,0-0.17-0.09-0.26-0.09
			c-0.09,0-0.09,0-0.09,0h-0.09c-0.17-0.09-0.43-0.17-0.6-0.26c-0.34-0.17-0.78-0.34-1.12-0.43l1.46-22.39
			c-0.69,0.17-1.38,0.26-1.98,0.26c-0.09,0-0.26,0-0.34,0l-0.69,10.33l-2.15-0.52l2.5-9.82c-0.86-0.09-1.64-0.34-2.33-0.6l-2.5,9.82
			l-2.15-0.52l4.31-9.39c-1.03-0.52-1.72-1.12-1.98-1.38l-10.94,23.86c-0.26,0.43-0.34,0.78-0.6,1.21l0,0
			c-0.26,0-0.43,0.09-0.78,0.09c-0.52,0-0.95,0-1.46,0c-0.26,0-0.43,0-0.52-0.09c-0.26,0-0.52-0.09-0.78-0.09
			c-1.03-0.17-2.07-0.52-3.01-0.86c-0.09,0-0.09,0-0.09,0s-0.09,0-0.09-0.09c-0.09,0-0.17-0.09-0.26-0.09
			c-0.26-0.09-0.52-0.26-0.69-0.34c-0.43-0.26-0.95-0.52-1.38-0.78c-0.95-0.52-1.72-1.21-2.67-1.81c-1.89-1.29-3.88-2.15-6.11-2.24
			c-2.15-0.09-4.22,0.69-6.29,1.21c-0.78,0.17-1.46,0.34-2.24,0.43c-0.17,0-0.34,0.09-0.52,0.09l0,0l0,0c-0.09,0-0.17,0-0.26,0
			c-0.34,0.09-0.69,0.09-1.12,0.09c-0.78,0-1.55,0-2.41-0.09l0,0l0,0c-0.09,0-0.26,0-0.34-0.09l0,0c2.84-3.44,4.48-7.32,4.91-11.37
			l0.09-0.95c0-0.43,0-0.78,0-1.21l0,0v-0.95c-0.69,0.09-1.46,0.09-2.15,0c-1.29-0.09-2.76-0.52-4.13-1.12l32.21-17.57l-2.76,5.17
			c-0.26,0.43-0.09,1.03,0.34,1.29l0.43,0.26c1.12,0.6,1.55,2.07,0.95,3.19c-0.6,1.12-2.07,1.55-3.19,0.95
			c-1.12-0.6-1.55-2.07-0.95-3.19l-1.64-0.86c-0.6,1.12-0.69,2.5-0.17,3.7l-9.13,1.46l-0.6-0.34c-0.43-0.26-1.03-0.09-1.29,0.34l0,0
			l-6.29,11.54c-0.26,0.43-0.09,1.03,0.34,1.29l0,0l17.83,9.65c0.43,0.26,1.03,0.09,1.29-0.34l0,0l6.29-11.54
			c0.26-0.43,0.09-1.03-0.34-1.29l-1.46-0.78l-2.58-7.41c2.33-0.09,4.13-1.98,4.05-4.31c0-1.38-0.69-2.58-1.81-3.36l3.96-7.06h0.09
			l-1.12-3.96l-41.43,14.73l0.09-0.09l1.55-2.76c-0.52-0.26-0.78-0.43-0.78-0.43c-0.6-0.43-1.21-0.86-1.81-1.29
			c-1.81-1.21-3.79-2.24-5.86-3.1l1.64-2.93l1.46-2.67l1.72-2.93l-10.25-0.69l5.6,5l-1.89,3.53c-5-1.89-10.59-3.01-16.36-3.1h-0.09
			c-1.12,0-2.33,0-3.44,0.09l-1.72,3.19v0.09v7.23c2.07-0.09,4.13-0.09,6.2,0.09c9.3,0.69,18.26,4.13,24.2,9.56
			c0.26,0.17,1.12,0.78,1.12,0.78c2.24,1.64,5.43,2.84,8.78,3.19c-0.6,5.25-1.89,7.32-5,10.59c-0.43-0.17-0.86-0.34-1.38-0.6
			c-1.12-0.52-2.15-1.12-3.1-1.81c-4.13-3.44-8.96-5.94-14.12-7.58c-4.05-1.29-8.27-2.07-12.57-2.33c-1.38-0.09-2.67-0.09-4.05-0.09
			V145c1.12,0,2.24,0,3.36,0.09c0.86,0.09,1.64,0.09,2.5,0.17c0.43,0.09,0.95,0.09,1.38,0.17c0.09,0,0.17,0,0.34,0.09
			c-0.34-0.09,0.09,0,0.09,0c0.26,0,0.52,0.09,0.78,0.09c2.15,0.34,4.31,0.78,6.37,1.46c1.12,0.34,2.33,0.69,3.44,1.12
			c0.26,0.09,0.6,0.26,0.86,0.34c0.09,0.09,0.26,0.09,0.34,0.17h0.09c0.09,0.09,0.26,0.09,0.34,0.17c0.6,0.26,1.12,0.52,1.72,0.78
			c1.29,0.69,2.58,1.38,3.88,2.15c1.38,0.86,2.58,1.72,3.7,2.67c0,0,0,0,0.09,0c0.09,0.09,0.09,0.09,0.17,0.17
			c3.1,1.98,6.55,3.62,10.33,3.79c1.55,0.09,3.01-0.09,4.56-0.43c0.78-0.17,1.55-0.34,2.33-0.52c1.12-0.26,2.15-0.69,3.27-0.86
			c1.89-0.34,3.79,0.09,5.51,1.12c0.86,0.52,1.72,1.12,2.5,1.72c0.86,0.6,1.81,1.12,2.76,1.64c1.98,0.95,4.05,1.64,6.29,1.81
			c1.89,0.17,3.7-0.17,5.51-0.69c0.34-0.09,0.78-0.17,1.12-0.34c0.95-0.26,1.89-0.52,2.84-0.78c0.17-0.09,0.43-0.09,0.6-0.17
			c0.09,0,0.17-0.09,0.26-0.09c0.43-0.09,0.86-0.26,1.29-0.34c0.17,0,0.34-0.09,0.43-0.09s0.17,0,0.17,0c0.17,0,0.26,0,0.43,0
			c0.09,0,0.17,0,0.26,0c0.43,0,0.78,0,1.12,0c0.26,0,0.52,0,0.78,0.09c0.09,0,0.09,0,0.17,0c0.17,0,0.26,0.09,0.43,0.09
			c0.6,0.17,1.29,0.34,1.89,0.52c0.09,0,0.09,0.09,0.17,0.09c0.43,0.17,0.78,0.34,1.21,0.52c0.17,0.09,0.43,0.17,0.6,0.26
			c0.09,0,0.17,0.09,0.26,0.09l0.17,0.09c0,0,0.09,0,0.09,0.09c0.69,0.34,1.46,0.6,2.15,0.86c1.55,0.6,3.1,1.12,4.74,1.38
			c1.38,0.26,2.67,0.34,4.05,0c0.69-0.17,1.38-0.34,1.98-0.52c0.43-0.09,0.86-0.26,1.29-0.34c0.17,0,0.34-0.09,0.43-0.09
			s0.17,0,0.26,0c0.17,0,0.34,0,0.52,0c0.09,0,0.09,0,0.17,0h0.17c0.43,0.09,0.78,0.17,1.21,0.34c1.03-0.26,2.07-0.6,3.1-0.86
			c-1.03-1.03-2.5-1.64-3.88-1.89C569.05,160.85,568.27,160.76,567.5,160.93 M530.72,134.93l2.5,6.55l-10.16-5.51L530.72,134.93z
			 M535.72,144.92l-5.43,9.9l-16.19-8.78l5.43-9.9L535.72,144.92z M535.2,120.46l-12.14,6.63l-3.62-1.03L535.2,120.46z
			 M516.43,127.69l3.7,1.03l-4.91,2.67L516.43,127.69z M513.76,128.12l-1.29,4.13l-5.34-1.81L513.76,128.12z M492.83,132.94
			l-0.43,0.17c-5.68-3.1-12.57-5.08-18.77-5.51c-1.81-0.17-3.7-0.17-5.51-0.09l2.41-4.48c0.52,0,1.03,0,1.55,0
			c8.44,0.09,16.45,2.5,22.56,6.63L492.83,132.94z M500.15,138.2c-0.78-0.43-1.29-0.78-1.29-0.78c-1.12-0.95-2.24-1.81-3.53-2.67
			l0.09-0.26l6.63-2.33L500.15,138.2z M504.63,132.08l5.68,1.89l-7.66,4.13L504.63,132.08z M544.85,158.09
			c-0.95,0.17-1.98,0.52-2.93,0.78c-0.86,0.17-1.64,0.43-2.41,0.69l5.25-11.45l2.58,0.6L544.85,158.09z M551.48,158.52
			c-1.29-0.43-2.76-0.69-4.13-0.69l2.15-8.44l2.58,0.6L551.48,158.52z"/>
		<path class="st1" d="M591.96,100.39c0-0.09,0-0.17-0.09-0.17c-0.26-0.6-0.52-1.21-0.78-1.81c0.26-0.26,0.34-0.52,0.26-0.86
			c-0.09-0.43-0.34-0.69-0.78-0.78c-0.17,0-0.17-0.09-0.26-0.26c-0.09-0.17-0.09-0.34-0.26-0.52c-0.52-0.52-1.03-1.12-1.55-1.64
			c-0.26-0.26-0.69-0.26-0.95-0.09c-0.17,0.17-0.26,0.34-0.26,0.52c0,0.26,0.09,0.43,0.26,0.6l0.34,0.34
			c0.34,0.34,0.69,0.69,1.03,1.03c0.09,0.09,0.09,0.09,0.09,0.17c-0.17,0.17-0.34,0.43-0.34,0.69c0,0.26,0.09,0.52,0.34,0.69
			c0.17,0.17,0.43,0.34,0.69,0.34c0.26,0.6,0.52,1.21,0.78,1.81c0.09,0.17,0.17,0.26,0.34,0.26c0.26,0,0.43,0,0.69,0h0.69
			L591.96,100.39z"/>
		<path class="st1" d="M587.22,106.5c0.34,0.26,0.78,0.52,1.21,0.69c0-0.17,0.09-0.34,0.09-0.52c0.34-1.21,0.95-2.33,1.72-3.36
			c0.09-0.09,0.09-0.17,0.17-0.17s0.26,0,0.34,0l5,0.26c0.09,0,0.26,0,0.34,0c0,0,0.09,0.09,0.09,0.17
			c0.69,1.03,1.21,2.24,1.38,3.44c0.09,0.69,0.17,1.38,0.09,1.98l-0.09,0.52c0.78-0.09,1.55-0.26,2.24-0.34v-0.26
			c0.09-0.86,0-1.72-0.09-2.24c-0.26-1.55-0.86-3.01-1.72-4.31c-0.17-0.26-0.43-0.6-0.78-0.78c-0.52-0.26-0.95-0.34-1.29-0.34
			l-5-0.26c-0.34,0-0.86,0-1.29,0.17c-0.34,0.17-0.69,0.43-0.86,0.69c-0.95,1.21-1.72,2.58-2.15,3.96c0.09,0,0.09,0.09,0.17,0.09
			C586.79,106.25,586.96,106.42,587.22,106.5"/>
	</g>
	<g class="st2">
		<path class="st1" d="M8.28,110.73c-1.32-0.13-2.63-0.13-3.82-0.26V85.32c1.32-0.26,2.63-0.53,4.21-0.66
			c1.58-0.13,3.03-0.26,4.48-0.26c4.87,0,8.56,1.05,11.06,3.29c2.5,2.11,3.69,5.53,3.69,10.01c0,3.03-0.53,5.66-1.71,7.64
			c-1.19,1.98-2.9,3.42-5.27,4.35s-5.4,1.32-8.95,1.32C10.78,110.86,9.6,110.86,8.28,110.73z M17.9,104.67
			c1.05-0.53,1.84-1.32,2.37-2.5c0.53-1.19,0.79-2.63,0.79-4.61c0-1.84-0.26-3.42-0.79-4.48c-0.53-1.19-1.32-1.98-2.5-2.5
			c-1.05-0.53-2.5-0.79-4.08-0.79c-0.4,0-0.79,0-1.32,0.13s-0.92,0.13-1.19,0.13v15.41c0.79,0,1.58,0.13,2.5,0.13
			C15.39,105.46,16.84,105.2,17.9,104.67z"/>
		<path class="st1" d="M31.46,110.6V84.66h6.72v25.94H31.46z"/>
		<path class="st1" d="M57.4,110.6l-6.19-9.09c-0.4,0-0.79,0-1.45,0c-0.4,0-0.66,0-0.92,0v9.22h-6.58V85.45
			c1.32-0.26,2.63-0.53,4.21-0.66c1.45-0.13,2.9-0.26,4.35-0.26c3.82,0,6.72,0.66,8.69,2.11c1.98,1.45,2.9,3.56,2.9,6.45
			c0,1.84-0.4,3.29-1.19,4.61c-0.79,1.32-1.98,2.24-3.56,2.9l6.98,10.27L57.4,110.6L57.4,110.6z M48.97,96.38
			c0.92,0.13,1.71,0.13,2.63,0.13c1.58,0,2.77-0.26,3.56-0.92c0.79-0.53,1.19-1.45,1.19-2.77c0-1.32-0.4-2.24-1.19-2.77
			c-0.79-0.66-1.98-0.92-3.42-0.92c-0.92,0-1.84,0.13-2.63,0.26L48.97,96.38L48.97,96.38z"/>
	</g>
	<g class="st2">
		<path class="st1" d="M73.6,105.2h12.51v5.4h-19.1V84.66h18.96v5.4H73.6v4.74h10.54v5.4H73.6V105.2L73.6,105.2z"/>
	</g>
	<g class="st2">
		<path class="st1" d="M91.77,107.7c-2.37-2.11-3.56-5.53-3.56-10.01c0-2.9,0.53-5.4,1.71-7.37c1.05-1.98,2.77-3.56,4.87-4.48
			c2.11-1.05,4.74-1.58,7.9-1.58c1.98,0,3.82,0.26,5.53,0.53v5.53c-1.71-0.4-3.29-0.53-5-0.53c-1.84,0-3.42,0.26-4.48,0.79
			c-1.19,0.53-2.11,1.32-2.63,2.5c-0.53,1.19-0.92,2.63-0.92,4.48s0.26,3.42,0.79,4.48c0.53,1.05,1.45,1.98,2.5,2.5
			c1.19,0.53,2.63,0.79,4.35,0.79c1.58,0,3.42-0.26,5.14-0.79v5.53c-0.79,0.26-1.71,0.4-2.77,0.53c-1.05,0.13-2.11,0.26-3.03,0.26
			C97.7,110.86,94.14,109.81,91.77,107.7z"/>
	</g>
	<g class="st2">
		<path class="st1" d="M113.37,107.7c-2.37-2.11-3.56-5.53-3.56-10.01c0-2.9,0.53-5.4,1.71-7.37c1.05-1.98,2.77-3.56,4.87-4.48
			c2.11-1.05,4.74-1.58,7.9-1.58c1.98,0,3.82,0.26,5.53,0.53v5.53c-1.71-0.4-3.29-0.53-5-0.53c-1.84,0-3.42,0.26-4.48,0.79
			c-1.19,0.53-2.11,1.32-2.63,2.5c-0.53,1.19-0.92,2.63-0.92,4.48s0.26,3.42,0.79,4.48c0.53,1.19,1.45,1.98,2.5,2.5
			c1.19,0.53,2.63,0.79,4.35,0.79c1.58,0,3.42-0.26,5.14-0.79v5.53c-0.79,0.26-1.71,0.4-2.77,0.53c-1.05,0.13-2.11,0.26-3.03,0.26
			C119.3,110.86,115.87,109.81,113.37,107.7z"/>
		<path class="st1" d="M132.86,110.6V84.66h6.72v25.94H132.86z"/>
		<path class="st1" d="M149.06,109.41c-1.98-1.05-3.42-2.5-4.48-4.48c-1.05-1.98-1.58-4.48-1.58-7.37c0-2.9,0.53-5.4,1.58-7.37
			c1.05-1.98,2.5-3.42,4.48-4.48s4.21-1.45,6.72-1.45s4.87,0.53,6.85,1.45c1.98,1.05,3.42,2.5,4.48,4.48s1.58,4.48,1.58,7.37
			c0,2.9-0.53,5.4-1.58,7.37c-1.05,1.98-2.5,3.42-4.48,4.48c-1.98,1.05-4.21,1.45-6.85,1.45
			C153.14,110.86,150.9,110.47,149.06,109.41z M160.12,103.62c1.05-1.32,1.45-3.16,1.45-5.93s-0.53-4.87-1.45-6.06
			c-1.05-1.32-2.5-1.98-4.35-1.98c-1.98,0-3.42,0.66-4.35,1.84c-1.05,1.19-1.45,3.16-1.45,5.93s0.53,4.87,1.45,6.19
			c0.92,1.32,2.5,1.98,4.35,1.98C157.62,105.46,159.2,104.94,160.12,103.62z M152.75,82.68l3.16-5.4h6.98l-4.21,5.4H152.75z"/>
		<path class="st1" d="M188.96,84.66h6.32v25.94h-6.72l-10.27-15.93v15.93h-6.32V84.66h6.72l10.27,15.93V84.66z"/>
		<path class="st1" d="M229.79,97.96v12.38c-2.5,0.4-4.74,0.66-6.72,0.66c-5.14,0-8.95-1.05-11.59-3.29
			c-2.5-2.24-3.82-5.53-3.82-10.01c0-4.35,1.32-7.77,3.95-10.01c2.63-2.24,6.45-3.42,11.59-3.42c2.11,0,3.95,0.26,5.79,0.66v5.53
			c-1.71-0.4-3.42-0.53-5.27-0.53c-2.11,0-3.95,0.26-5.27,0.79c-1.32,0.53-2.24,1.45-2.9,2.5c-0.66,1.19-0.92,2.63-0.92,4.61
			c0,2.63,0.66,4.61,1.98,5.79c1.32,1.19,3.29,1.84,5.93,1.84c0.4,0,0.79,0,1.05,0v-7.51L229.79,97.96L229.79,97.96z"/>
		<path class="st1" d="M240.58,105.2h12.51v5.4h-19.23V84.66h18.96v5.4h-12.38v4.74h10.54v5.4h-10.54v5H240.58z"/>
		<path class="st1" d="M273.51,84.66h6.32v25.94h-6.72l-10.27-15.93v15.93h-6.32V84.66h6.72l10.27,15.93V84.66z"/>
		<path class="st1" d="M290.63,105.2h12.51v5.4h-19.23V84.66h18.96v5.4h-12.38v4.74h10.54v5.4h-10.54v5H290.63z"/>
	</g>
	<g class="st2">
		<path class="st1" d="M321.57,110.6l-6.19-9.09c-0.4,0-0.79,0-1.45,0c-0.4,0-0.66,0-0.92,0v9.22h-6.58V85.45
			c1.32-0.26,2.63-0.53,4.21-0.66c1.45-0.13,2.9-0.26,4.35-0.26c3.82,0,6.72,0.66,8.69,2.11c1.98,1.45,2.9,3.56,2.9,6.45
			c0,1.84-0.4,3.29-1.19,4.61c-0.79,1.32-1.98,2.24-3.56,2.9l6.98,10.27L321.57,110.6L321.57,110.6z M313.15,96.38
			c0.92,0.13,1.71,0.13,2.63,0.13c1.58,0,2.77-0.26,3.56-0.92c0.79-0.53,1.19-1.45,1.19-2.77c0-1.32-0.4-2.24-1.19-2.77
			c-0.79-0.66-1.98-0.92-3.42-0.92c-0.92,0-1.84,0.13-2.63,0.26L313.15,96.38L313.15,96.38z"/>
	</g>
	<g class="st2">
		<path class="st1" d="M346.86,110.6l-1.84-6.45h-9.09l-1.84,6.45h-6.58l8.03-25.94h9.88l8.03,25.94H346.86z M337.38,98.88h6.06
			l-3.03-10.27L337.38,98.88z"/>
		<path class="st1" d="M355.68,110.6V84.66h6.72v20.41h11.59v5.53H355.68L355.68,110.6z"/>
		<path class="st1" d="M388.87,110.73c-1.32-0.13-2.63-0.13-3.82-0.26V85.32c1.32-0.26,2.63-0.53,4.21-0.66
			c1.58-0.13,3.03-0.26,4.48-0.26c4.87,0,8.56,1.05,11.06,3.29c2.5,2.11,3.69,5.53,3.69,10.01c0,3.03-0.53,5.66-1.71,7.64
			c-1.19,1.98-2.9,3.42-5.27,4.35s-5.4,1.32-8.95,1.32C391.5,110.86,390.18,110.86,388.87,110.73z M398.61,104.67
			c1.05-0.53,1.84-1.32,2.37-2.5c0.53-1.19,0.79-2.63,0.79-4.61c0-1.84-0.26-3.42-0.79-4.48c-0.53-1.19-1.32-1.98-2.5-2.5
			c-1.05-0.53-2.5-0.79-4.08-0.79c-0.4,0-0.79,0-1.32,0.13s-0.92,0.13-1.19,0.13v15.41c0.79,0,1.58,0.13,2.5,0.13
			C396.11,105.46,397.56,105.2,398.61,104.67z"/>
		<path class="st1" d="M418.76,105.2h12.51v5.4h-19.23V84.66h18.96v5.4h-12.38v4.74h10.54v5.4h-10.54L418.76,105.2L418.76,105.2z"/>
	</g>
	<g class="st2">
		<path class="st1" d="M19.34,149.98c-2.37-2.11-3.56-5.53-3.56-10.01c0-2.9,0.53-5.4,1.71-7.37c1.05-1.98,2.77-3.56,4.87-4.48
			c2.11-1.05,4.74-1.58,7.9-1.58c1.98,0,3.82,0.26,5.53,0.53v5.53c-1.71-0.4-3.29-0.53-5-0.53c-1.84,0-3.42,0.26-4.48,0.79
			c-1.19,0.53-2.11,1.32-2.63,2.5c-0.53,1.19-0.92,2.63-0.92,4.48s0.26,3.42,0.79,4.48c0.53,1.19,1.45,1.98,2.5,2.5
			c1.05,0.53,2.63,0.79,4.35,0.79c1.58,0,3.42-0.26,5.14-0.79v5.53c-0.79,0.26-1.71,0.4-2.77,0.53c-1.05,0.13-2.11,0.26-3.03,0.26
			C25.27,153.27,21.85,152.08,19.34,149.98z"/>
		<path class="st1" d="M41.47,150.37c-1.84-1.84-2.77-4.74-2.77-8.56v-14.88h6.72v15.54c0,1.84,0.4,3.16,1.19,4.08
			c0.79,0.79,1.98,1.32,3.56,1.32c1.58,0,2.77-0.4,3.56-1.32c0.79-0.79,1.19-2.24,1.19-4.08v-15.54h6.58v14.88
			c0,3.82-0.92,6.72-2.77,8.56c-1.84,1.84-4.61,2.77-8.56,2.77C46.21,153.27,43.31,152.35,41.47,150.37z"/>
	</g>
	<g class="st2">
		<path class="st1" d="M65.57,152.87v-25.94h6.72v20.41h11.59v5.53H65.57L65.57,152.87z"/>
	</g>
	<g class="st2">
		<path class="st1" d="M87.69,152.87v-20.41h-8.03v-5.53h22.78v5.53h-8.03v20.41H87.69z"/>
		<path class="st1" d="M107.45,150.37c-1.84-1.84-2.77-4.74-2.77-8.56v-14.88h6.72v15.54c0,1.84,0.4,3.16,1.19,4.08
			c0.79,0.79,1.98,1.32,3.56,1.32s2.77-0.4,3.56-1.32c0.79-0.79,1.19-2.24,1.19-4.08v-15.54h6.58v14.88c0,3.82-0.92,6.72-2.77,8.56
			c-1.84,1.84-4.61,2.77-8.56,2.77C112.19,153.27,109.29,152.35,107.45,150.37z"/>
	</g>
	<g class="st2">
		<path class="st1" d="M146.56,152.87l-6.19-9.09c-0.4,0-0.79,0-1.45,0c-0.4,0-0.66,0-0.92,0V153h-6.58v-25.28
			c1.32-0.26,2.63-0.53,4.21-0.66c1.45-0.13,2.9-0.26,4.35-0.26c3.82,0,6.72,0.66,8.69,2.11c1.98,1.45,2.9,3.56,2.9,6.45
			c0,1.84-0.4,3.29-1.19,4.61c-0.79,1.32-1.98,2.24-3.56,2.9l6.98,10.27L146.56,152.87L146.56,152.87z M138.13,138.65
			c0.92,0.13,1.71,0.13,2.63,0.13c1.58,0,2.77-0.26,3.56-0.92c0.79-0.53,1.19-1.45,1.19-2.77c0-1.32-0.4-2.24-1.19-2.77
			s-1.98-0.92-3.42-0.92c-0.92,0-1.84,0.13-2.63,0.26L138.13,138.65L138.13,138.65z"/>
	</g>
	<g class="st2">
		<path class="st1" d="M171.71,152.87l-1.84-6.45h-9.09l-1.84,6.45h-6.58l8.03-25.94h9.88l8.03,25.94H171.71z M162.36,141.15h6.06
			l-3.03-10.27L162.36,141.15z"/>
		<path class="st1" d="M211.48,126.93l-9.09,15.14v10.8h-6.72v-10.8l-9.35-15.14h7.11l5.79,9.48l5.66-9.48H211.48L211.48,126.93z"/>
		<path class="st1" d="M228.34,147.61h12.51v5.4h-19.23v-25.94h18.96v5.4h-12.38v4.74h10.54v5.4h-10.54v5H228.34z"/>
		<path class="st1" d="M247.96,153c-1.32-0.13-2.63-0.13-3.82-0.26v-25.15c1.32-0.26,2.63-0.53,4.21-0.66
			c1.58-0.13,3.03-0.26,4.48-0.26c4.87,0,8.56,1.05,11.06,3.29c2.5,2.11,3.69,5.53,3.69,10.01c0,3.03-0.53,5.66-1.71,7.64
			c-1.19,1.98-2.9,3.42-5.27,4.35c-2.37,0.92-5.4,1.32-8.95,1.32C250.46,153.14,249.28,153.14,247.96,153z M257.57,146.95
			c1.05-0.53,1.84-1.32,2.37-2.5s0.79-2.63,0.79-4.61c0-1.84-0.26-3.42-0.79-4.48c-0.53-1.19-1.32-1.98-2.5-2.5
			c-1.05-0.53-2.5-0.79-4.08-0.79c-0.4,0-0.79,0-1.32,0.13c-0.53,0-0.92,0.13-1.19,0.13v15.41c0.79,0,1.58,0.13,2.5,0.13
			C255.2,147.74,256.52,147.47,257.57,146.95z"/>
		<path class="st1" d="M273.77,150.37c-1.84-1.84-2.77-4.74-2.77-8.56v-14.88h6.72v15.54c0,1.84,0.4,3.16,1.19,4.08
			c0.79,0.79,1.98,1.32,3.56,1.32s2.77-0.4,3.56-1.32c0.79-0.79,1.19-2.24,1.19-4.08v-15.54h6.58v14.88c0,3.82-0.92,6.72-2.77,8.56
			s-4.61,2.77-8.56,2.77C278.51,153.27,275.61,152.35,273.77,150.37z"/>
		<path class="st1" d="M300.64,149.98c-2.37-2.11-3.56-5.53-3.56-10.01c0-2.9,0.53-5.4,1.71-7.37c1.05-1.98,2.77-3.56,4.87-4.48
			c2.11-1.05,4.74-1.58,7.9-1.58c1.98,0,3.82,0.26,5.53,0.53v5.53c-1.71-0.4-3.29-0.53-5-0.53c-1.84,0-3.42,0.26-4.48,0.79
			c-1.19,0.53-2.11,1.32-2.63,2.5c-0.53,1.19-0.92,2.63-0.92,4.48s0.26,3.42,0.79,4.48c0.53,1.19,1.45,1.98,2.5,2.5
			c1.19,0.53,2.63,0.79,4.35,0.79c1.58,0,3.42-0.26,5.14-0.79v5.53c-0.79,0.26-1.71,0.4-2.77,0.53s-2.11,0.26-3.03,0.26
			C306.56,153.27,303.01,152.08,300.64,149.98z"/>
	</g>
	<g class="st2">
		<path class="st1" d="M337.51,152.87l-1.84-6.45h-9.09l-1.84,6.45h-6.58l8.03-25.94h9.88l8.03,25.94H337.51z M328.03,141.15h6.06
			l-3.03-10.27L328.03,141.15z"/>
	</g>
	<g class="st2">
		<path class="st1" d="M348.57,149.98c-2.37-2.11-3.56-5.53-3.56-10.01c0-2.9,0.53-5.4,1.71-7.37c1.05-1.98,2.77-3.56,4.87-4.48
			c2.11-1.05,4.74-1.58,7.9-1.58c1.98,0,3.82,0.26,5.53,0.53v5.53c-1.71-0.4-3.29-0.53-5-0.53c-1.84,0-3.42,0.26-4.48,0.79
			c-1.19,0.53-2.11,1.32-2.63,2.5c-0.53,1.19-0.92,2.63-0.92,4.48s0.26,3.42,0.79,4.48c0.53,1.19,1.45,1.98,2.5,2.5
			c1.05,0.53,2.63,0.79,4.35,0.79c1.58,0,3.42-0.26,5.14-0.79v5.53c-0.79,0.26-1.71,0.4-2.77,0.53c-1.05,0.13-2.11,0.26-3.03,0.26
			C354.5,153.27,350.94,152.08,348.57,149.98z"/>
		<path class="st1" d="M367.93,152.87v-25.94h6.72v25.94H367.93z"/>
		<path class="st1" d="M384.13,151.69c-1.98-1.05-3.42-2.5-4.48-4.48c-1.05-1.98-1.58-4.48-1.58-7.37c0-2.9,0.53-5.4,1.58-7.37
			c1.05-1.98,2.5-3.42,4.48-4.48c1.98-1.05,4.21-1.45,6.72-1.45c2.63,0,4.87,0.53,6.85,1.45c1.98,1.05,3.42,2.5,4.48,4.48
			c1.05,1.98,1.58,4.48,1.58,7.37c0,2.9-0.53,5.4-1.58,7.37c-1.05,1.98-2.5,3.42-4.48,4.48c-1.98,1.05-4.21,1.45-6.85,1.45
			C388.34,153.27,386.1,152.74,384.13,151.69z M395.32,145.89c1.05-1.32,1.45-3.16,1.45-5.93c0-2.77-0.53-4.87-1.45-6.06
			c-1.05-1.32-2.5-1.98-4.35-1.98c-1.98,0-3.42,0.66-4.35,1.84c-1.05,1.19-1.45,3.16-1.45,5.93c0,2.77,0.53,4.87,1.45,6.19
			c0.92,1.32,2.5,1.98,4.35,1.98C392.82,147.87,394.27,147.21,395.32,145.89z M387.95,124.95l3.16-5.4h6.98l-4.21,5.4H387.95z"/>
		<path class="st1" d="M424.16,126.93h6.32v25.94h-6.72l-10.27-15.93v15.93h-6.32v-25.94h6.72l10.27,15.93V126.93z"/>
	</g>
</g>
</svg>
